<?xml version="1.0" encoding="UTF-8" standalone="no"?>
<!-- Created with Inkscape (http://www.inkscape.org/) -->

<svg
   xmlns:dc="http://purl.org/dc/elements/1.1/"
   xmlns:cc="http://creativecommons.org/ns#"
   xmlns:rdf="http://www.w3.org/1999/02/22-rdf-syntax-ns#"
   xmlns:svg="http://www.w3.org/2000/svg"
   xmlns="http://www.w3.org/2000/svg"
   xmlns:sodipodi="http://sodipodi.sourceforge.net/DTD/sodipodi-0.dtd"
   xmlns:inkscape="http://www.inkscape.org/namespaces/inkscape"
   width="50"
   height="100"
   id="svg3792"
   version="1.1"
   inkscape:version="0.48.2 r9819"
   sodipodi:docname="linkedin_icon.svg"
   inkscape:export-filename="/Users/ceciliareyes/Desktop/Website/linkedin_icon.png"
   inkscape:export-xdpi="92.47908"
   inkscape:export-ydpi="92.47908">
  <defs
     id="defs3794" />
  <sodipodi:namedview
     id="base"
     pagecolor="#ffffff"
     bordercolor="#666666"
     borderopacity="1.0"
     inkscape:pageopacity="0.0"
     inkscape:pageshadow="2"
     inkscape:zoom="4.1"
     inkscape:cx="23.619905"
     inkscape:cy="48.908047"
     inkscape:document-units="px"
     inkscape:current-layer="layer1"
     showgrid="false"
     inkscape:window-width="902"
     inkscape:window-height="756"
     inkscape:window-x="251"
     inkscape:window-y="0"
     inkscape:window-maximized="0" />
  <metadata
     id="metadata3797">
    <rdf:RDF>
      <cc:Work
         rdf:about="">
        <dc:format>image/svg+xml</dc:format>
        <dc:type
           rdf:resource="http://purl.org/dc/dcmitype/StillImage" />
        <dc:title />
      </cc:Work>
    </rdf:RDF>
  </metadata>
  <g
     inkscape:label="Layer 1"
     inkscape:groupmode="layer"
     id="layer1"
     transform="translate(0,-952.36218)">
    <path
       sodipodi:type="arc"
       style="opacity:0.80766355000000001;fill:#2c7504;fill-opacity:0.95169079;fill-rule:nonzero;stroke:none"
       id="path3800"
       sodipodi:cx="25.506351"
       sodipodi:cy="27.269016"
       sodipodi:rx="19.192898"
       sodipodi:ry="19.192898"
       d="m 44.699249,27.269016 c 0,10.599945 -8.592953,19.192898 -19.192898,19.192898 -10.599944,0 -19.1928973,-8.592953 -19.1928973,-19.192898 0,-10.599944 8.5929533,-19.1928975 19.1928973,-19.1928975 10.599945,0 19.192898,8.5929535 19.192898,19.1928975 z"
       transform="matrix(1.1697995,0,0,1.1509625,-3.7644019,944.77793)"
       inkscape:export-filename="/Users/ceciliareyes/Desktop/Website/linkedin_icon.png"
       inkscape:export-xdpi="90"
       inkscape:export-ydpi="90" />
    <path
       transform="matrix(1.1761535,0,0,1.1636705,-4.5620935,992.46022)"
       d="m 44.699249,27.269016 c 0,10.599945 -8.592953,19.192898 -19.192898,19.192898 -10.599944,0 -19.1928973,-8.592953 -19.1928973,-19.192898 0,-10.599944 8.5929533,-19.1928975 19.1928973,-19.1928975 10.599945,0 19.192898,8.5929535 19.192898,19.1928975 z"
       sodipodi:ry="19.192898"
       sodipodi:rx="19.192898"
       sodipodi:cy="27.269016"
       sodipodi:cx="25.506351"
       id="path3804"
       style="fill:#731fae;fill-opacity:1;fill-rule:nonzero;stroke:none"
       sodipodi:type="arc" />
    <path
       style="fill:#ffffff;fill-opacity:1;fill-rule:nonzero;stroke:#fffffa;stroke-width:0.09178104;stroke-linecap:butt;stroke-miterlimit:4;stroke-opacity:1;stroke-dasharray:none"
       d="m 33.157636,80.894309 c -0.0014,-0.04823 0.04984,-0.364463 0.113899,-0.702737 l 0.116471,-0.615043 0.129052,0.07623 c 0.07098,0.04193 0.129053,0.101511 0.129053,0.132407 0,0.139996 -0.484626,1.240396 -0.488475,1.10914 z"
       id="path4468"
       inkscape:connector-curvature="0"
       transform="translate(0,952.36218)" />
    <path
       style="fill:#ffffff;fill-opacity:1;fill-rule:nonzero;stroke:#fffffa;stroke-width:0.09178104;stroke-linecap:butt;stroke-miterlimit:4;stroke-opacity:1;stroke-dasharray:none"
       d="m 17.596811,84.290126 c -0.03852,-0.05878 -0.08249,-0.184335 -0.09773,-0.279003 -0.0251,-0.155968 -0.02081,-0.166448 0.04573,-0.111647 0.04039,0.03326 0.133935,0.158814 0.207888,0.279003 l 0.134461,0.218527 -0.11016,0 c -0.06694,0 -0.137631,-0.04193 -0.18019,-0.10688 z"
       id="path4470"
       inkscape:connector-curvature="0"
       transform="translate(0,952.36218)" />
    <path
       style="fill:#ffffff;fill-opacity:1;fill-rule:nonzero;stroke:#fffffa;stroke-width:0.09178104;stroke-linecap:butt;stroke-miterlimit:4;stroke-opacity:1;stroke-dasharray:none"
       d=""
       id="path4472"
       inkscape:connector-curvature="0"
       transform="translate(0,952.36218)" />
    <path
       style="fill:#ffffff;fill-opacity:1;fill-rule:nonzero;stroke:#fffffa;stroke-width:0.09178104;stroke-linecap:butt;stroke-miterlimit:4;stroke-opacity:1;stroke-dasharray:none"
       d=""
       id="path4474"
       inkscape:connector-curvature="0"
       transform="translate(0,952.36218)" />
    <path
       style="fill:#ffffff;fill-opacity:1;fill-rule:nonzero;stroke:#fffffa;stroke-width:0.09178104;stroke-linecap:butt;stroke-miterlimit:4;stroke-opacity:1;stroke-dasharray:none"
       d="m 23.412177,85.584618 c -0.366243,-0.248539 -0.597792,-0.588847 -0.718761,-1.056363 -0.161324,-0.623474 -0.327148,-2.052861 -0.429531,-3.702495 -0.06657,-1.072552 -0.253877,-5.522509 -0.314739,-7.477297 -0.02752,-0.883884 -0.07986,-1.888297 -0.116314,-2.232029 -0.04771,-0.449851 -0.07345,-1.425506 -0.09188,-3.481965 -0.03324,-3.708761 -0.01693,-3.86452 0.473949,-4.526675 0.277285,-0.374037 0.531718,-0.610078 0.778315,-0.722054 0.243843,-0.110726 0.385477,-0.107067 0.566013,0.01462 0.201292,0.135677 0.291078,0.383017 0.62445,1.720221 0.150942,0.60545 0.30283,1.155717 0.337528,1.222816 0.04576,0.08849 0.10904,0.12975 0.230379,0.150219 0.09201,0.01552 0.199645,0.03697 0.23919,0.04768 0.03955,0.0107 0.119898,-0.02117 0.178562,-0.07083 0.105906,-0.08964 0.106029,-0.09078 0.01738,-0.160504 -0.08701,-0.06844 -0.08362,-0.0753 0.133922,-0.270236 1.189709,-1.066124 2.045528,-1.648602 3.571246,-2.430623 1.325689,-0.679495 1.888717,-0.863173 2.844349,-0.927921 1.517892,-0.102843 2.456185,0.259147 3.60011,1.388909 0.518854,0.51243 0.751945,0.835042 1.029593,1.425019 0.467179,0.992714 0.554295,1.532144 0.553855,3.429524 -6.87e-4,2.957571 -0.514026,6.879473 -1.02124,7.802234 -0.172848,0.31446 -0.484654,1.284066 -0.663527,2.063334 -0.06481,0.282352 -0.159836,0.694161 -0.211167,0.915132 -0.114061,0.491017 -0.442217,1.515882 -0.829034,2.589154 -0.467585,1.297377 -0.639678,1.604671 -0.977766,1.745933 -0.466715,0.195006 -0.868049,-0.09698 -1.019234,-0.74152 -0.09925,-0.423124 -0.134368,-1.285696 -0.07269,-1.785382 0.120423,-0.975632 0.695314,-2.979436 1.6138,-5.624954 0.16756,-0.482626 0.196302,-0.664273 0.328456,-2.075787 0.170683,-1.823037 0.22248,-2.693623 0.221774,-3.727489 -6.3e-4,-0.920333 -0.0057,-0.976282 -0.123951,-1.361537 -0.06781,-0.220971 -0.220919,-0.604229 -0.340239,-0.851684 -0.453371,-0.940236 -0.893829,-1.145055 -2.477856,-1.152239 -0.848239,-0.0038 -1.105967,0.05493 -1.915867,0.436952 -0.960896,0.453242 -1.613901,0.959962 -2.191922,1.700892 -0.153232,0.196419 -0.528662,0.738802 -0.834289,1.205296 -0.305628,0.466494 -0.629153,0.912585 -0.718946,0.991313 -0.103661,0.09089 -0.153729,0.167976 -0.137153,0.211171 0.01499,0.03905 -0.03933,0.158728 -0.127513,0.280944 -0.08449,0.117103 -0.168442,0.253091 -0.186559,0.302195 -0.07032,0.19061 -0.118272,0.622463 -0.188341,1.696342 -0.05865,0.898821 -0.0712,1.793661 -0.06451,4.59798 0.0098,4.123433 -0.04707,6.732623 -0.157441,7.218655 -0.140587,0.6191 -0.413592,1.032977 -0.817201,1.238883 -0.234351,0.119557 -0.402274,0.11509 -0.595199,-0.01583 l 0,0 z m 9.853137,-4.698184 c 0.185209,-0.40086 0.203237,-0.489393 0.03508,-0.172276 l -0.118356,0.223203 -0.02666,-0.133921 c -0.02428,-0.121963 -0.02947,-0.114431 -0.05813,0.08435 -0.06418,0.445162 -0.03815,0.444952 0.168059,-0.0014 l 0,0 z M 33.186,80.480645 c -0.01132,-0.04343 -0.02132,-0.01871 -0.02223,0.05495 -9.1e-4,0.07366 0.0084,0.109194 0.02058,0.07897 0.01223,-0.03022 0.01297,-0.09049 0.0017,-0.133922 l -2e-6,0 z m 0.324822,-0.168252 c 0,-0.02455 -0.01947,-0.01451 -0.04327,0.02232 -0.0238,0.03683 -0.04327,0.08705 -0.04327,0.111602 0,0.02455 0.01947,0.01451 0.04327,-0.02232 0.0238,-0.03683 0.04327,-0.08705 0.04327,-0.111602 z M 33.2302,80.237062 c -0.01425,-0.03561 -0.02483,-0.02503 -0.02697,0.02697 -0.0019,0.04706 0.0086,0.07342 0.02345,0.05859 0.01483,-0.01483 0.01642,-0.05334 0.0035,-0.08556 l 2e-6,0 z m 0.369903,-0.147872 c 0,-0.02455 -0.01947,-0.01451 -0.04327,0.02232 -0.0238,0.03683 -0.04327,0.08705 -0.04327,0.111601 0,0.02455 0.01947,0.01451 0.04327,-0.02232 0.0238,-0.03683 0.04327,-0.08705 0.04327,-0.111602 z M 33.27484,80.01386 c -0.01425,-0.03561 -0.02483,-0.02503 -0.02697,0.02697 -0.0019,0.04706 0.0086,0.07342 0.02345,0.05859 0.01483,-0.01483 0.01642,-0.05334 0.0035,-0.08556 l 1e-6,0 z m 0.432498,-0.193143 c 0.01939,-0.06366 -0.0018,-0.108111 -0.07272,-0.152253 -0.09164,-0.05707 -0.09492,-0.05606 -0.03875,0.0119 0.03938,0.04765 0.05165,0.126168 0.03425,0.219214 -0.02781,0.148678 0.02405,0.09573 0.07722,-0.07886 z m -0.387857,-0.0747 c -0.01425,-0.03561 -0.02483,-0.02503 -0.02697,0.02697 -0.0019,0.04706 0.0086,0.07343 0.02345,0.05859 0.01483,-0.01483 0.01642,-0.05334 0.0035,-0.08556 l 2e-6,0 z m 0.164476,-0.179758 c -0.01192,-0.01929 -0.05062,-0.03508 -0.086,-0.03508 -0.03538,0 -0.06433,0.01578 -0.06433,0.03508 0,0.01929 0.0387,0.03507 0.086,0.03507 0.0473,0 0.07625,-0.01578 0.06433,-0.03507 z"
       id="path4476"
       inkscape:connector-curvature="0"
       transform="translate(0,952.36218)" />
    <path
       style="fill:#ffffff;fill-opacity:1;fill-rule:nonzero;stroke:#fffffa;stroke-width:0.09178104;stroke-linecap:butt;stroke-miterlimit:4;stroke-opacity:1;stroke-dasharray:none"
       d="M 23.300892,85.517821 C 22.888381,85.19175 22.699245,84.791975 22.559431,83.9506 c -0.234967,-1.41398 -0.355559,-3.296606 -0.563313,-8.794194 -0.04964,-1.313549 -0.125377,-2.940698 -0.168307,-3.615887 -0.06175,-0.971137 -0.07809,-1.875806 -0.07823,-4.330136 -2.05e-4,-3.518546 -0.0087,-3.422935 0.354614,-3.969506 0.23503,-0.353536 0.674134,-0.784531 0.89206,-0.875586 0.386011,-0.161286 0.666142,-0.02081 0.830324,0.416367 0.05264,0.140157 0.222744,0.736949 0.37802,1.326205 0.35558,1.349391 0.336034,1.300643 0.544755,1.358603 0.224127,0.06224 0.292088,0.05973 0.393674,-0.01456 0.07263,-0.05311 0.07622,-0.07268 0.02469,-0.134759 -0.07536,-0.0908 -0.0457,-0.125737 0.532373,-0.627134 1.012805,-0.878462 2.313593,-1.706077 3.696308,-2.351744 1.136719,-0.530796 1.728828,-0.675357 2.776576,-0.677886 1.250866,-0.003 1.981484,0.30309 3.05427,1.279658 0.486933,0.443259 0.868068,0.952135 1.137798,1.519142 0.426684,0.896944 0.529705,1.403021 0.56914,2.795836 0.08305,2.933076 -0.456362,7.38699 -1.032268,8.523486 -0.163346,0.322347 -0.438333,1.188455 -0.624534,1.96705 -0.349122,1.459846 -0.817995,2.960751 -1.324816,4.240855 -0.342404,0.864829 -0.576138,1.116014 -1.038478,1.116014 -0.397005,0 -0.687389,-0.403186 -0.781995,-1.085764 -0.06997,-0.504869 -0.05974,-1.388029 0.02113,-1.822102 0.172941,-0.928365 0.573116,-2.325039 1.271864,-4.439003 0.44353,-1.341837 0.443875,-1.343231 0.530833,-2.142747 0.20402,-1.875805 0.285502,-3.109106 0.288804,-4.371284 l 0.0033,-1.249936 -0.149559,-0.401765 c -0.32915,-0.884206 -0.664152,-1.39675 -1.037373,-1.587154 -0.282171,-0.143952 -0.695704,-0.218657 -1.380609,-0.249405 -1.04587,-0.04695 -1.476091,0.04601 -2.419866,0.522929 -1.228829,0.620958 -1.699572,1.099043 -3.016866,3.063919 -0.151575,0.226089 -0.366031,0.522107 -0.476569,0.657818 -0.11054,0.13571 -0.20098,0.269513 -0.20098,0.297338 0,0.02783 -0.06984,0.165566 -0.155206,0.30609 -0.08536,0.140523 -0.17559,0.354078 -0.200503,0.474565 -0.130004,0.628741 -0.177539,2.120534 -0.203276,6.379468 -0.02628,4.348847 -0.07201,6.413981 -0.151273,6.83151 -0.10952,0.576914 -0.360963,1.007275 -0.73593,1.259595 -0.310905,0.209212 -0.527736,0.201619 -0.819086,-0.02868 l 0,0 z m 9.839097,-4.5693 c -0.01238,-0.03069 -0.02252,-0.0056 -0.02252,0.0558 0,0.06138 0.01013,0.08649 0.02252,0.0558 0.01238,-0.03069 0.01238,-0.08091 0,-0.111602 z"
       id="path4478"
       inkscape:connector-curvature="0"
       transform="translate(0,952.36218)" />
    <path
       style="fill:#ffffff;fill-opacity:1;fill-rule:nonzero;stroke:#fffffa;stroke-width:0.09178104;stroke-linecap:butt;stroke-miterlimit:4;stroke-opacity:1;stroke-dasharray:none"
       d="M 23.300892,85.517821 C 22.888381,85.19175 22.699245,84.791975 22.559431,83.9506 c -0.234967,-1.41398 -0.355559,-3.296606 -0.563313,-8.794194 -0.04964,-1.313549 -0.125377,-2.940698 -0.168307,-3.615887 -0.06175,-0.971137 -0.07809,-1.875806 -0.07823,-4.330136 -2.05e-4,-3.518546 -0.0087,-3.422935 0.354614,-3.969506 0.23503,-0.353536 0.674134,-0.784531 0.89206,-0.875586 0.386011,-0.161286 0.666142,-0.02081 0.830324,0.416367 0.05264,0.140157 0.222744,0.736949 0.37802,1.326205 0.35558,1.349391 0.336034,1.300643 0.544755,1.358603 0.224127,0.06224 0.292088,0.05973 0.393674,-0.01456 0.07263,-0.05311 0.07622,-0.07268 0.02469,-0.134759 -0.07536,-0.0908 -0.0457,-0.125737 0.532373,-0.627134 1.012805,-0.878462 2.313593,-1.706077 3.696308,-2.351744 1.136719,-0.530796 1.728828,-0.675357 2.776576,-0.677886 1.250866,-0.003 1.981484,0.30309 3.05427,1.279658 0.486933,0.443259 0.868068,0.952135 1.137798,1.519142 0.426684,0.896944 0.529705,1.403021 0.56914,2.795836 0.08305,2.933076 -0.456362,7.38699 -1.032268,8.523486 -0.163346,0.322347 -0.438333,1.188455 -0.624534,1.96705 -0.349122,1.459846 -0.817995,2.960751 -1.324816,4.240855 -0.342404,0.864829 -0.576138,1.116014 -1.038478,1.116014 -0.397005,0 -0.687389,-0.403186 -0.781995,-1.085764 -0.06997,-0.504869 -0.05974,-1.388029 0.02113,-1.822102 0.172941,-0.928365 0.573116,-2.325039 1.271864,-4.439003 0.44353,-1.341837 0.443875,-1.343231 0.530833,-2.142747 0.20402,-1.875805 0.285502,-3.109106 0.288804,-4.371284 l 0.0033,-1.249936 -0.149559,-0.401765 c -0.32915,-0.884206 -0.664152,-1.39675 -1.037373,-1.587154 -0.282171,-0.143952 -0.695704,-0.218657 -1.380609,-0.249405 -1.04587,-0.04695 -1.476091,0.04601 -2.419866,0.522929 -1.228829,0.620958 -1.699572,1.099043 -3.016866,3.063919 -0.151575,0.226089 -0.366031,0.522107 -0.476569,0.657818 -0.11054,0.13571 -0.20098,0.269513 -0.20098,0.297338 0,0.02783 -0.06984,0.165566 -0.155206,0.30609 -0.08536,0.140523 -0.17559,0.354078 -0.200503,0.474565 -0.130004,0.628741 -0.177539,2.120534 -0.203276,6.379468 -0.02628,4.348847 -0.07201,6.413981 -0.151273,6.83151 -0.10952,0.576914 -0.360963,1.007275 -0.73593,1.259595 -0.310905,0.209212 -0.527736,0.201619 -0.819086,-0.02868 l 0,0 z m 9.839097,-4.5693 c -0.01238,-0.03069 -0.02252,-0.0056 -0.02252,0.0558 0,0.06138 0.01013,0.08649 0.02252,0.0558 0.01238,-0.03069 0.01238,-0.08091 0,-0.111602 z"
       id="path4480"
       inkscape:connector-curvature="0"
       transform="translate(0,952.36218)" />
    <path
       style="fill:#ffffff;fill-opacity:1;fill-rule:nonzero;stroke:#fffffa;stroke-width:0.09178104;stroke-linecap:butt;stroke-miterlimit:4;stroke-opacity:1;stroke-dasharray:none"
       d="M 23.300892,85.517821 C 22.888381,85.19175 22.699245,84.791975 22.559431,83.9506 c -0.234967,-1.41398 -0.355559,-3.296606 -0.563313,-8.794194 -0.04964,-1.313549 -0.125377,-2.940698 -0.168307,-3.615887 -0.06175,-0.971137 -0.07809,-1.875806 -0.07823,-4.330136 -2.05e-4,-3.518546 -0.0087,-3.422935 0.354614,-3.969506 0.23503,-0.353536 0.674134,-0.784531 0.89206,-0.875586 0.386011,-0.161286 0.666142,-0.02081 0.830324,0.416367 0.05264,0.140157 0.222744,0.736949 0.37802,1.326205 0.35558,1.349391 0.336034,1.300643 0.544755,1.358603 0.224127,0.06224 0.292088,0.05973 0.393674,-0.01456 0.07263,-0.05311 0.07622,-0.07268 0.02469,-0.134759 -0.07536,-0.0908 -0.0457,-0.125737 0.532373,-0.627134 1.012805,-0.878462 2.313593,-1.706077 3.696308,-2.351744 1.136719,-0.530796 1.728828,-0.675357 2.776576,-0.677886 1.250866,-0.003 1.981484,0.30309 3.05427,1.279658 0.486933,0.443259 0.868068,0.952135 1.137798,1.519142 0.426684,0.896944 0.529705,1.403021 0.56914,2.795836 0.08305,2.933076 -0.456362,7.38699 -1.032268,8.523486 -0.163346,0.322347 -0.438333,1.188455 -0.624534,1.96705 -0.349122,1.459846 -0.817995,2.960751 -1.324816,4.240855 -0.342404,0.864829 -0.576138,1.116014 -1.038478,1.116014 -0.397005,0 -0.687389,-0.403186 -0.781995,-1.085764 -0.06997,-0.504869 -0.05974,-1.388029 0.02113,-1.822102 0.172941,-0.928365 0.573116,-2.325039 1.271864,-4.439003 0.44353,-1.341837 0.443875,-1.343231 0.530833,-2.142747 0.20402,-1.875805 0.285502,-3.109106 0.288804,-4.371284 l 0.0033,-1.249936 -0.149559,-0.401765 c -0.32915,-0.884206 -0.664152,-1.39675 -1.037373,-1.587154 -0.282171,-0.143952 -0.695704,-0.218657 -1.380609,-0.249405 -1.04587,-0.04695 -1.476091,0.04601 -2.419866,0.522929 -1.228829,0.620958 -1.699572,1.099043 -3.016866,3.063919 -0.151575,0.226089 -0.366031,0.522107 -0.476569,0.657818 -0.11054,0.13571 -0.20098,0.269513 -0.20098,0.297338 0,0.02783 -0.06984,0.165566 -0.155206,0.30609 -0.08536,0.140523 -0.17559,0.354078 -0.200503,0.474565 -0.130004,0.628741 -0.177539,2.120534 -0.203276,6.379468 -0.02628,4.348847 -0.07201,6.413981 -0.151273,6.83151 -0.10952,0.576914 -0.360963,1.007275 -0.73593,1.259595 -0.310905,0.209212 -0.527736,0.201619 -0.819086,-0.02868 l 0,0 z m 9.839097,-4.5693 c -0.01238,-0.03069 -0.02252,-0.0056 -0.02252,0.0558 0,0.06138 0.01013,0.08649 0.02252,0.0558 0.01238,-0.03069 0.01238,-0.08091 0,-0.111602 z"
       id="path4482"
       inkscape:connector-curvature="0"
       transform="translate(0,952.36218)" />
    <path
       style="fill:#ffffff;fill-opacity:1;fill-rule:nonzero;stroke:#fffffa;stroke-width:0.09178104;stroke-linecap:butt;stroke-miterlimit:4;stroke-opacity:1;stroke-dasharray:none"
       d="M 23.300892,85.517821 C 22.888381,85.19175 22.699245,84.791975 22.559431,83.9506 c -0.234967,-1.41398 -0.355559,-3.296606 -0.563313,-8.794194 -0.04964,-1.313549 -0.125377,-2.940698 -0.168307,-3.615887 -0.06175,-0.971137 -0.07809,-1.875806 -0.07823,-4.330136 -2.05e-4,-3.518546 -0.0087,-3.422935 0.354614,-3.969506 0.23503,-0.353536 0.674134,-0.784531 0.89206,-0.875586 0.386011,-0.161286 0.666142,-0.02081 0.830324,0.416367 0.05264,0.140157 0.222744,0.736949 0.37802,1.326205 0.35558,1.349391 0.336034,1.300643 0.544755,1.358603 0.224127,0.06224 0.292088,0.05973 0.393674,-0.01456 0.07263,-0.05311 0.07622,-0.07268 0.02469,-0.134759 -0.07536,-0.0908 -0.0457,-0.125737 0.532373,-0.627134 1.012805,-0.878462 2.313593,-1.706077 3.696308,-2.351744 1.136719,-0.530796 1.728828,-0.675357 2.776576,-0.677886 1.250866,-0.003 1.981484,0.30309 3.05427,1.279658 0.486933,0.443259 0.868068,0.952135 1.137798,1.519142 0.426684,0.896944 0.529705,1.403021 0.56914,2.795836 0.08305,2.933076 -0.456362,7.38699 -1.032268,8.523486 -0.163346,0.322347 -0.438333,1.188455 -0.624534,1.96705 -0.349122,1.459846 -0.817995,2.960751 -1.324816,4.240855 -0.342404,0.864829 -0.576138,1.116014 -1.038478,1.116014 -0.397005,0 -0.687389,-0.403186 -0.781995,-1.085764 -0.06997,-0.504869 -0.05974,-1.388029 0.02113,-1.822102 0.172941,-0.928365 0.573116,-2.325039 1.271864,-4.439003 0.44353,-1.341837 0.443875,-1.343231 0.530833,-2.142747 0.20402,-1.875805 0.285502,-3.109106 0.288804,-4.371284 l 0.0033,-1.249936 -0.149559,-0.401765 c -0.32915,-0.884206 -0.664152,-1.39675 -1.037373,-1.587154 -0.282171,-0.143952 -0.695704,-0.218657 -1.380609,-0.249405 -1.04587,-0.04695 -1.476091,0.04601 -2.419866,0.522929 -1.228829,0.620958 -1.699572,1.099043 -3.016866,3.063919 -0.151575,0.226089 -0.366031,0.522107 -0.476569,0.657818 -0.11054,0.13571 -0.20098,0.269513 -0.20098,0.297338 0,0.02783 -0.06984,0.165566 -0.155206,0.30609 -0.08536,0.140523 -0.17559,0.354078 -0.200503,0.474565 -0.130004,0.628741 -0.177539,2.120534 -0.203276,6.379468 -0.02628,4.348847 -0.07201,6.413981 -0.151273,6.83151 -0.10952,0.576914 -0.360963,1.007275 -0.73593,1.259595 -0.310905,0.209212 -0.527736,0.201619 -0.819086,-0.02868 l 0,0 z m 9.839097,-4.5693 c -0.01238,-0.03069 -0.02252,-0.0056 -0.02252,0.0558 0,0.06138 0.01013,0.08649 0.02252,0.0558 0.01238,-0.03069 0.01238,-0.08091 0,-0.111602 z"
       id="path4484"
       inkscape:connector-curvature="0"
       transform="translate(0,952.36218)" />
    <path
       style="fill:#ffffff;fill-opacity:1;fill-rule:nonzero;stroke:#fffffa;stroke-width:0.09178104;stroke-linecap:butt;stroke-miterlimit:4;stroke-opacity:1;stroke-dasharray:none"
       d="m 16.905625,85.251776 c -0.159674,-0.159674 -0.242961,-0.451358 -0.332906,-1.165894 -0.0459,-0.364611 -0.0912,-0.568469 -0.131309,-0.590917 -0.08631,-0.0483 -0.102275,-0.137854 -0.181414,-1.017504 -0.334003,-3.712562 -0.559905,-5.448309 -0.96443,-7.410336 -0.234719,-1.138432 -0.288319,-1.290962 -0.713753,-2.031146 -1.295066,-2.253202 -1.418977,-3.242377 -0.510445,-4.074881 0.29984,-0.274749 0.84289,-0.59006 1.016241,-0.59006 0.226218,0 0.456511,0.11979 0.746567,0.388338 0.71564,0.662573 1.252437,1.65309 1.783891,3.291698 0.612969,1.889941 1.04981,4.430373 1.320787,7.680992 0.09907,1.188479 0.139203,3.458454 0.06758,3.822531 -0.06275,0.318952 -0.268807,0.760916 -0.439585,0.94285 -0.166015,0.17686 -0.376537,0.16843 -0.557384,-0.02232 -0.07565,-0.0798 -0.122704,-0.119971 -0.104557,-0.08928 0.01946,0.0329 0.009,0.05636 -0.02544,0.05716 -0.03421,7.95e-4 -0.02431,0.02119 0.02387,0.0492 0.120932,0.0703 0.215841,0.324753 0.167663,0.449514 -0.09423,0.244014 -0.465303,0.437381 -0.83934,0.437381 -0.158973,0 -0.224163,-0.02546 -0.326027,-0.127323 z m 0.745211,-0.9008 c -0.06996,-0.05503 -0.131864,-0.164707 -0.157482,-0.279004 -0.02322,-0.103583 -0.04436,-0.144441 -0.04699,-0.0908 -0.0093,0.189399 0.150999,0.460472 0.272272,0.460472 0.02611,0 -0.0044,-0.0408 -0.0678,-0.09067 l 0,0 z m 0.169416,-0.166013 c -0.220495,-0.347019 -0.378671,-0.500856 -0.378671,-0.368284 0,0.02455 0.02511,0.04468 0.0558,0.04473 0.03069,4.5e-5 0.124232,0.100489 0.20787,0.223203 0.159179,0.23355 0.249979,0.312786 0.115001,0.100355 z"
       id="path4486"
       inkscape:connector-curvature="0"
       transform="translate(0,952.36218)" />
    <path
       style="fill:#ffffff;fill-opacity:1;fill-rule:nonzero;stroke:#fffffa;stroke-width:0.09178104;stroke-linecap:butt;stroke-miterlimit:4;stroke-opacity:1;stroke-dasharray:none"
       d="m 16.905625,85.251776 c -0.159674,-0.159674 -0.242961,-0.451358 -0.332906,-1.165894 -0.0459,-0.364611 -0.0912,-0.568469 -0.131309,-0.590917 -0.08631,-0.0483 -0.102275,-0.137854 -0.181414,-1.017504 -0.334003,-3.712562 -0.559905,-5.448309 -0.96443,-7.410336 -0.234719,-1.138432 -0.288319,-1.290962 -0.713753,-2.031146 -1.295066,-2.253202 -1.418977,-3.242377 -0.510445,-4.074881 0.29984,-0.274749 0.84289,-0.59006 1.016241,-0.59006 0.226218,0 0.456511,0.11979 0.746567,0.388338 0.71564,0.662573 1.252437,1.65309 1.783891,3.291698 0.612969,1.889941 1.04981,4.430373 1.320787,7.680992 0.09907,1.188479 0.139203,3.458454 0.06758,3.822531 -0.06275,0.318952 -0.268807,0.760916 -0.439585,0.94285 -0.166015,0.17686 -0.376537,0.16843 -0.557384,-0.02232 -0.07565,-0.0798 -0.122704,-0.119971 -0.104557,-0.08928 0.01946,0.0329 0.009,0.05636 -0.02544,0.05716 -0.03421,7.95e-4 -0.02431,0.02119 0.02387,0.0492 0.120932,0.0703 0.215841,0.324753 0.167663,0.449514 -0.09423,0.244014 -0.465303,0.437381 -0.83934,0.437381 -0.158973,0 -0.224163,-0.02546 -0.326027,-0.127323 z m 0.745211,-0.9008 c -0.06996,-0.05503 -0.131864,-0.164707 -0.157482,-0.279004 -0.02322,-0.103583 -0.04436,-0.144441 -0.04699,-0.0908 -0.0093,0.189399 0.150999,0.460472 0.272272,0.460472 0.02611,0 -0.0044,-0.0408 -0.0678,-0.09067 l 0,0 z m 0.169416,-0.166013 c -0.220495,-0.347019 -0.378671,-0.500856 -0.378671,-0.368284 0,0.02455 0.02511,0.04468 0.0558,0.04473 0.03069,4.5e-5 0.124232,0.100489 0.20787,0.223203 0.159179,0.23355 0.249979,0.312786 0.115001,0.100355 z"
       id="path4488"
       inkscape:connector-curvature="0"
       transform="translate(0,952.36218)" />
    <g
       id="g4494"
       transform="matrix(1.0295674,0,0,1.035265,-0.0846662,-36.905728)">
      <g
         transform="translate(0,46)"
         id="g4460">
        <path
           inkscape:connector-curvature="0"
           id="path4462"
           transform="translate(0,952.36218)"
           d="m 31.90625,16.125 c -0.955188,0.03727 -2.15625,0.269172 -2.15625,0.5 0,0.04995 0.325766,0.06236 0.71875,0.03125 -1.07119,0.210742 -1.96875,0.550532 -1.96875,0.875 0,0.125612 0.351655,0.0659 0.78125,-0.15625 0.322197,-0.166616 0.62249,-0.290734 0.78125,-0.3125 -0.551441,0.221451 -1.133666,0.505879 -1.5625,0.78125 -0.0192,0.0032 -0.0457,0.02951 -0.0625,0.03125 -0.01483,0.0015 -0.04972,-2.8e-4 -0.0625,0 -0.07408,0.0016 -0.343496,0.169627 -0.6875,0.375 0.0055,-0.0188 0.0019,-0.02681 0.03125,-0.0625 0.682438,-0.830416 -0.158005,-0.39664 -1.625,0.84375 -0.821353,0.69448 -1.582698,1.25 -1.6875,1.25 -0.217814,0 -0.96875,-2.370096 -0.96875,-3.0625 0,-0.762537 -0.468537,-0.535303 -0.875,0.4375 -0.254577,0.609296 -0.36901,1.642411 -0.34375,3.09375 0.03004,1.725669 0.0633,1.931299 0.1875,1.03125 0.08624,-0.625032 0.15279,1.548445 0.125,4.8125 -0.02779,3.264056 0.02741,5.493084 0.125,4.9375 0.05314,-0.302519 0.08936,-0.49102 0.125,-0.53125 0.02964,0.661843 0.0595,1.149098 0.09375,1.28125 0.0035,-0.0041 0.02754,0.0095 0.03125,0 0.01175,-0.03006 0.02032,-0.03867 0.03125,-0.0625 0.01797,0.194267 0.0407,0.180289 0.0625,0.4375 0.01637,0.19316 0.01706,0.392585 0.03125,0.59375 -0.02411,0.0083 -0.03364,0.03347 -0.0625,0.0625 -0.114901,0.115562 -0.136444,0.846262 -0.09375,1.75 -0.07056,-0.429884 -0.105763,-0.315114 -0.0625,1.03125 0.03611,1.123718 0.209979,2.285406 0.375,2.59375 0.168457,0.314765 0.480189,0.51446 0.71875,0.46875 0.598589,-0.114704 0.7471,-1.905234 0.75,-8.96875 l 0,-5.875 0.3125,-0.4375 c -0.149927,0.259103 -0.25,0.454681 -0.25,0.53125 0,0.09201 0.08333,0.16145 0.1875,0.15625 0.253856,-0.01269 1.707276,-2.597302 1.5625,-2.75 0.976452,-1.045809 2.225296,-2.008749 2.9375,-2.1875 0.332911,-0.08356 0.55829,-0.21818 0.5,-0.3125 -0.01457,-0.02358 -0.0088,-0.07222 0,-0.09375 0.05558,-0.02566 0.136161,-0.07144 0.1875,-0.09375 0.03973,-0.01726 0.08744,-0.01593 0.125,-0.03125 0.219096,-0.01048 0.873927,-0.09531 1.46875,-0.1875 0.168779,0.02425 0.30905,0.05267 0.53125,0.09375 0.104656,0.01935 0.187015,0.04208 0.28125,0.0625 -0.260972,0.20917 -0.227221,0.222749 0.21875,0.125 0.07194,-0.01577 0.152657,-0.03094 0.21875,-0.03125 0.01025,0.0029 0.02114,-0.003 0.03125,0 0.176634,0.05204 0.32962,0.122857 0.46875,0.1875 0.03562,0.02727 0.05791,0.05978 0.09375,0.09375 0.08533,0.08087 0.190854,0.191716 0.28125,0.3125 0.276158,0.368992 0.59713,0.789855 0.71875,0.9375 0.44775,0.543564 0.844268,1.424142 0.5625,1.25 -0.194048,-0.119928 -0.27275,0.544969 -0.28125,2.1875 -0.0089,1.720661 -0.229466,3.09178 -0.75,5.125 -0.747705,2.920567 -0.736389,3.262147 0,3.65625 0.393203,0.210437 0.477023,0.112793 0.6875,-0.8125 0.134047,-0.589291 0.582151,-2.260342 0.96875,-3.71875 0.82251,-3.102838 1.002718,-7.824556 0.375,-9.3125 C 35.901434,18.606635 35.6964,18.30359 35.625,18.375 35.607149,18.392851 35.564945,18.372886 35.5,18.34375 35.372017,18.127015 35.204271,17.861307 35,17.625 34.335501,16.856288 33.916896,16.626505 33.03125,16.5 c -0.05645,-0.0081 -0.127786,0.0058 -0.1875,0 l 0.84375,-0.15625 -0.96875,-0.1875 C 32.506171,16.11329 32.224646,16.11258 31.90625,16.125 z m 1.875,0.875 c 0.09503,0 0.371708,0.230673 0.65625,0.53125 C 34.2396,17.359924 34.030476,17.242381 33.84375,17.125 33.798644,17.051163 33.756272,17 33.78125,17 z M 13.125,17.25 c -2.052447,0 -3.001847,2.382067 -1.5,3.78125 1.243067,1.158093 3.21875,0.161683 3.21875,-1.625 0,-1.029106 -0.882452,-2.15625 -1.71875,-2.15625 z m 18.78125,0.25 c 0.414612,0 0.828372,0.09677 1.21875,0.25 -0.0052,0.02332 0.01544,0.03752 0,0.0625 -0.101644,0.164462 -0.02218,0.21745 0.21875,0.125 0.04169,-0.016 0.107124,-0.0311 0.15625,-0.03125 0.440711,0.234128 0.800272,0.567646 1.03125,0.9375 0.311262,0.498415 0.302402,0.48468 -0.625,-0.0625 -2.250108,-1.327596 -5.317304,-0.40803 -8.09375,2.40625 -0.966891,0.980068 -1.694042,1.967396 -1.9375,2.65625 l -0.25,0.6875 C 23.57292,24.5611 23.54237,24.57658 23.5,24.5625 L 23.46875,23.21875 C 23.46565,22.94891 23.49181,22.827753 23.5,22.625 c 0.10438,0.241005 0.1224,0.17415 0.21875,-0.21875 0.04674,-0.190578 -0.0025,-0.436402 -0.125,-0.65625 -0.0045,-0.008 0.0046,-0.02334 0,-0.03125 0.03102,-0.05496 0.05232,-0.05686 0.09375,-0.03125 0.141499,0.08745 1.305528,-0.552559 2.5625,-1.40625 1.249984,-0.848945 2.18244,-1.435471 3,-1.875 0.0051,0.001 0.02782,-0.0021 0.03125,0 0.116469,0.07198 0.21875,0.03408 0.21875,-0.09375 0,-0.02458 0.04397,-0.04376 0.0625,-0.0625 0.0056,-0.0056 -0.0071,-0.02619 0,-0.03125 0.0071,-0.0036 0.02416,0.0036 0.03125,0 0.101715,-0.05363 0.271249,-0.07498 0.5,-0.03125 0.330959,0.06327 0.709377,-0.02064 0.8125,-0.1875 0.133688,-0.216313 0.03893,-0.246457 -0.34375,-0.125 -0.125411,0.03981 -0.252119,0.05153 -0.34375,0.0625 C 30.89461,17.646731 31.434464,17.5 31.90625,17.5 z M 23.5,19.5625 c 0.0213,-0.0213 0.09405,0.03247 0.21875,0.15625 0.17259,0.171305 0.26525,0.35975 0.1875,0.4375 C 23.8285,20.234 23.68859,20.09281 23.59375,19.84375 23.525225,19.663792 23.478703,19.583797 23.5,19.5625 z m 11.59375,1.03125 c -1.56e-4,7.92e-4 0.03136,-8.87e-4 0.03125,0 -0.0045,0.03725 -0.006,0.10744 0.0625,0.3125 0.03068,0.09189 0.03707,0.167213 0.0625,0.25 -0.111705,-0.08954 -0.1875,-0.28038 -0.1875,-0.46875 0,-0.03956 0.01739,-0.07573 0.03125,-0.09375 z m 0.0625,0 c 0.05206,0.0066 0.128145,0.03439 0.21875,0.125 0.103933,0.103934 0.169322,0.223503 0.1875,0.3125 -0.05008,-0.04611 -0.09792,-0.05341 -0.15625,-0.125 -0.161406,-0.198091 -0.204588,-0.277829 -0.25,-0.3125 z M 15.125,22.65625 c -0.152781,-0.0069 -0.301836,0.08998 -0.59375,0.28125 -1.12412,0.736552 -1.058407,1.633354 0.25,3.875 0.483751,0.828745 0.690536,1.017462 0.9375,0.8125 0.253546,-0.210424 0.395142,0.0507 0.625,1.1875 0.484094,2.394157 0.923669,7.607581 0.65625,7.875 -0.131704,0.131705 -0.20527,0.758639 -0.15625,1.375 0.06155,0.773885 0.197102,1.09778 0.4375,1.0625 0.531484,-0.07801 0.758739,-0.40625 0.28125,-0.40625 -0.413768,0 -0.626575,-0.998426 -0.28125,-1.34375 0.184576,-0.184576 0.711758,0.31142 0.90625,0.84375 0.09494,0.259848 0.228392,0.150956 0.4375,-0.375 0.287704,-0.723645 0.296768,-1.252715 -0.125,-5.6875 -0.421672,-4.433779 -1.520246,-8.036149 -2.8125,-9.1875 -0.241551,-0.215211 -0.409719,-0.305643 -0.5625,-0.3125 z m -0.46875,0.9375 c 0.09509,0.0079 0.11677,0.105563 0.0625,0.25 -0.178747,0.475718 1.004119,1.001933 1.40625,0.625 0.227396,-0.213149 0.27455,-0.191219 0.1875,0.09375 -0.117573,0.384905 -1.46875,0.587487 -1.46875,0.21875 0,-0.110628 -0.156471,-0.21875 -0.375,-0.21875 -0.464232,0 -0.415476,-0.778353 0.0625,-0.9375 0.04515,-0.01503 0.0933,-0.03389 0.125,-0.03125 z m 1.9375,2.125 c 0.359229,-0.06608 0.712925,0.343234 0.375,0.5625 -0.151632,0.09839 -0.30907,0.357738 -0.375,0.5625 -0.08072,0.250676 -0.172821,0.164634 -0.28125,-0.25 -0.0967,-0.369789 -0.05759,-0.699651 0.125,-0.8125 0.04924,-0.03043 0.104932,-0.05306 0.15625,-0.0625 z m -1.4375,0.25 c 0.145606,0.0038 0.21875,0.118609 0.21875,0.375 0,0.588706 -0.110781,0.62523 -0.5,0.15625 -0.223554,-0.26937 -0.203332,-0.385999 0.09375,-0.5 0.06623,-0.02541 0.138965,-0.03253 0.1875,-0.03125 z m 19.71875,2.25 c 0.02655,-0.02655 0.05344,-0.007 0.09375,0.09375 0.07295,0.1823 0.08392,0.41608 0,0.5 -0.08392,0.08392 -0.13596,-0.07753 -0.125,-0.34375 0.0061,-0.147096 0.0047,-0.223448 0.03125,-0.25 z m -10.5,0.34375 c 0.04243,0.37559 0.05428,0.84371 0,1.125 -0.01146,0.05938 -0.02096,0.07832 -0.03125,0.09375 0.03836,-0.236317 0.02314,-0.724925 0.03125,-1.21875 z m -6.5625,0.625 c 0.02507,0.01475 0.05582,0.07971 0.0625,0.21875 0.02988,0.621928 -0.657246,0.78119 -0.8125,0.1875 -0.103136,-0.394396 -0.07519,-0.436762 0.1875,-0.21875 0.246845,0.204865 0.37213,0.178315 0.46875,-0.0625 0.04386,-0.109312 0.06868,-0.139746 0.09375,-0.125 z m 16.8125,0.03125 c 0.02655,-0.02655 0.05344,-0.007 0.09375,0.09375 0.07295,0.182301 0.08392,0.41608 0,0.5 -0.08392,0.08392 -0.16722,-0.07753 -0.15625,-0.34375 0.0061,-0.147096 0.03595,-0.223448 0.0625,-0.25 z m -17.1875,1.9375 c 0.03348,-0.01156 0.100969,0.05092 0.1875,0.1875 0.184137,0.290639 0.228168,0.290639 0.34375,0 0.07886,-0.198282 0.14477,-0.07728 0.15625,0.25 0.01096,0.312516 0.0035,0.54222 -0.03125,0.53125 -0.510132,-0.161094 -0.72195,-0.338022 -0.71875,-0.6875 0.0015,-0.16699 0.02902,-0.26969 0.0625,-0.28125 z m 0.8125,2.75 c 0.04845,-0.03491 0.112828,0.155181 0.125,0.53125 0.02101,0.649042 -0.07206,0.90625 -0.34375,0.90625 -0.25565,0 -0.3776,-0.255749 -0.375,-0.78125 0.0027,-0.549041 0.06144,-0.65468 0.21875,-0.40625 0.179254,0.283091 0.24528,0.259546 0.34375,-0.125 0.01698,-0.0663 0.0151,-0.113364 0.03125,-0.125 z"
           style="fill:#ffffff;fill-opacity:1;fill-rule:nonzero;stroke:#fffffa;stroke-width:0.51921839;stroke-linecap:butt;stroke-miterlimit:4;stroke-opacity:1;stroke-dasharray:none" />
        <path
           transform="translate(0,952.36218)"
           inkscape:connector-curvature="0"
           id="path4464"
           d="m 23.294861,39.438511 c -0.142901,-0.120243 -0.315024,-0.325376 -0.382496,-0.455852 -0.276752,-0.53518 -0.469712,-1.997957 -0.621247,-4.709497 -0.09642,-1.7254 -0.346554,-8.139557 -0.332024,-8.51419 0.0053,-0.13773 -0.03,-0.494574 -0.07854,-0.792988 -0.05094,-0.313172 -0.08896,-1.911894 -0.08993,-3.781274 -0.0019,-3.575533 -0.03097,-3.358852 0.560617,-4.171948 0.471139,-0.647551 1.058165,-0.84073 1.323628,-0.435582 0.07527,0.114872 0.225604,0.593795 0.334082,1.064274 0.446628,1.937064 0.419579,1.872709 0.812542,1.933192 0.191448,0.02947 0.479557,0.07398 0.640241,0.09892 l 0.292154,0.04535 -0.281642,-0.241701 -0.281641,-0.241701 0.598888,-0.536269 c 0.800124,-0.716464 1.820353,-1.387714 3.090436,-2.033323 1.358195,-0.690397 1.925562,-0.875518 2.874339,-0.937841 1.494318,-0.09816 2.430671,0.264688 3.55674,1.37827 0.5189,0.513146 0.712552,0.779239 0.981591,1.348778 0.418946,0.886883 0.517171,1.347967 0.57792,2.712855 0.119209,2.678363 -0.544514,8.050869 -1.062762,8.602517 -0.161879,0.172314 -0.690028,2.023763 -0.832019,2.916682 -0.06303,0.39637 -0.912854,2.900123 -1.264505,3.725489 -0.323461,0.7592 -1.032117,0.866158 -1.355508,0.204589 -0.22725,-0.464891 -0.277815,-1.729568 -0.102958,-2.575085 0.244625,-1.182881 1.182924,-4.314344 1.440842,-4.808645 0.06289,-0.120525 0.114573,-0.2666 0.114856,-0.32461 2.51e-4,-0.05801 0.03579,-0.170697 0.0789,-0.250417 0.175092,-0.323757 0.549308,-4.977076 0.486656,-6.051504 -0.03002,-0.514812 -0.107825,-0.85569 -0.309403,-1.355544 -0.511586,-1.268586 -0.856395,-1.511089 -2.271685,-1.597672 -1.081819,-0.06618 -1.556958,0.02997 -2.534876,0.512987 -1.278368,0.631414 -1.904122,1.25611 -2.961316,2.956312 -0.492357,0.791819 -0.65696,0.996454 -0.772121,0.959904 -0.158834,-0.05041 -0.202715,0.08706 -0.05661,0.177358 0.05816,0.03594 0.03073,0.118477 -0.07791,0.234475 -0.282024,0.301107 -0.33832,0.58352 -0.397293,1.993066 -0.03125,0.746842 -0.08318,1.376676 -0.115413,1.399631 -0.03223,0.02295 -0.02442,0.342237 0.01736,0.709515 0.0997,0.876521 0.02392,9.04658 -0.08928,9.62597 -0.121092,0.619754 -0.338965,1.024213 -0.670771,1.245216 -0.365655,0.243548 -0.521653,0.23803 -0.839842,-0.02971 l 0,0 z m 10.189212,-4.897399 c 0.190335,-0.449455 0.331914,-0.827059 0.314619,-0.83912 -0.158978,-0.110866 -0.490597,-0.304342 -0.490796,-0.286346 -1.67e-4,0.01253 -0.07526,0.409141 -0.166945,0.881344 -0.18526,0.954186 -0.216119,1.392489 -0.08354,1.186523 0.04433,-0.06887 0.236325,-0.492945 0.42666,-0.942401 z m -0.07715,-1.746804 c -0.0599,-0.0599 -0.09877,-0.06482 -0.09877,-0.01252 0,0.04744 0.02504,0.111298 0.05565,0.141904 0.03061,0.03061 0.07505,0.03624 0.09878,0.01252 0.02372,-0.02372 -0.0013,-0.08758 -0.05565,-0.141903 z m -8.84808,-5.342237 c -0.0599,-0.0599 -0.09877,-0.06482 -0.09877,-0.01252 0,0.111418 0.09871,0.210133 0.154424,0.154424 0.02372,-0.02372 -0.0013,-0.08758 -0.05565,-0.141903 l 0,0 z"
           style="fill:#ffffff;fill-opacity:1;fill-rule:nonzero;stroke:#fffffa;stroke-width:0.17161937;stroke-linecap:butt;stroke-miterlimit:4;stroke-opacity:1;stroke-dasharray:none" />
        <path
           transform="translate(0,952.36218)"
           inkscape:connector-curvature="0"
           id="path4466"
           d="m 16.823285,39.021297 c -0.07881,-0.166072 -0.163362,-0.594887 -0.187902,-0.952921 -0.03159,-0.460937 -0.07409,-0.639663 -0.14557,-0.612234 -0.07281,0.02794 -0.116574,-0.199648 -0.156998,-0.816496 -0.08279,-1.263292 -0.36122,-3.890331 -0.557272,-5.257934 -0.154282,-1.076224 -0.291272,-1.804362 -0.610279,-3.243775 -0.05596,-0.252504 -0.236273,-0.665693 -0.400695,-0.918197 -0.164422,-0.252504 -0.451143,-0.762066 -0.637157,-1.132359 -0.859517,-1.711016 -0.78572,-2.607188 0.274226,-3.330146 0.637491,-0.434813 0.905634,-0.425856 1.419058,0.0474 0.936874,0.86358 1.70581,2.655786 2.293976,5.346708 0.472805,2.163135 0.859218,5.713689 0.870648,7.999948 0.0072,1.440703 0.0041,1.467361 -0.228386,1.940735 -0.192187,0.391379 -0.273788,0.479967 -0.442112,0.479967 -0.144576,0 -0.249029,-0.07749 -0.348619,-0.258639 -0.348413,-0.633729 -0.601293,-0.825636 -0.601293,-0.456311 0,0.330549 0.150174,0.631477 0.315129,0.631477 0.202156,0 0.352651,0.159743 0.352651,0.374323 0,0.224852 -0.396753,0.460402 -0.775489,0.460402 -0.251891,0 -0.309731,-0.04025 -0.433916,-0.301949 z m 0.03492,-2.974345 c 0.0032,-0.172162 -0.0317,-0.313022 -0.07761,-0.313022 -0.04665,0 -0.08088,0.211726 -0.07761,0.479967 0.0042,0.345324 0.02599,0.433134 0.07761,0.313022 0.03946,-0.09182 0.07438,-0.307805 0.07761,-0.479967 z M 16.71756,35.024414 c 0.02194,-0.114774 0.0075,-0.208681 -0.032,-0.208681 -0.03954,0 -0.0719,0.09391 -0.0719,0.208681 0,0.114775 0.0144,0.208681 0.032,0.208681 0.0176,0 0.04996,-0.09391 0.0719,-0.208681 z m 1.398602,-0.208681 c 0,-0.0864 -0.03756,-0.180307 -0.08347,-0.208681 -0.04883,-0.03018 -0.08347,0.05642 -0.08347,0.208681 0,0.152258 0.03464,0.238861 0.08347,0.208681 0.04591,-0.02837 0.08347,-0.12228 0.08347,-0.208681 z m -1.585977,-3.018921 c 0,-0.03826 -0.03712,-0.06956 -0.08248,-0.06956 -0.04537,0 -0.106714,-0.151509 -0.136325,-0.336686 -0.02961,-0.185178 -0.07214,-0.318382 -0.09452,-0.29601 -0.02237,0.02237 -0.01601,0.205184 0.01414,0.406247 0.03604,0.240307 0.09669,0.36557 0.177001,0.36557 0.0672,0 0.12218,-0.0313 0.12218,-0.06956 l 0,0 z m 0.230135,-5.793794 c -0.08215,-0.08215 -0.230135,0.04396 -0.230135,0.196129 0,0.127419 0.01098,0.12719 0.141109,-0.0029 0.07761,-0.07761 0.117671,-0.164545 0.08903,-0.19319 l 0,0 z"
           style="fill:#ffffff;fill-opacity:1;fill-rule:nonzero;stroke:#fffffa;stroke-width:0.17161937;stroke-linecap:butt;stroke-miterlimit:4;stroke-opacity:1;stroke-dasharray:none" />
      </g>
      <path
         transform="translate(0,952.36218)"
         inkscape:connector-curvature="0"
         id="path4490"
         d="m 16.905625,85.251776 c -0.159674,-0.159674 -0.242961,-0.451358 -0.332906,-1.165894 -0.0459,-0.364611 -0.0912,-0.568469 -0.131309,-0.590917 -0.08631,-0.0483 -0.102275,-0.137854 -0.181414,-1.017504 -0.334003,-3.712562 -0.559905,-5.448309 -0.96443,-7.410336 -0.234719,-1.138432 -0.288319,-1.290962 -0.713753,-2.031146 -1.295066,-2.253202 -1.418977,-3.242377 -0.510445,-4.074881 0.29984,-0.274749 0.84289,-0.59006 1.016241,-0.59006 0.226218,0 0.456511,0.11979 0.746567,0.388338 0.71564,0.662573 1.252437,1.65309 1.783891,3.291698 0.612969,1.889941 1.04981,4.430373 1.320787,7.680992 0.09907,1.188479 0.139203,3.458454 0.06758,3.822531 -0.06275,0.318952 -0.268807,0.760916 -0.439585,0.94285 -0.166015,0.17686 -0.376537,0.16843 -0.557384,-0.02232 -0.07565,-0.0798 -0.122704,-0.119971 -0.104557,-0.08928 0.01946,0.0329 0.009,0.05636 -0.02544,0.05716 -0.03421,7.95e-4 -0.02431,0.02119 0.02387,0.0492 0.120932,0.0703 0.215841,0.324753 0.167663,0.449514 -0.09423,0.244014 -0.465303,0.437381 -0.83934,0.437381 -0.158973,0 -0.224163,-0.02546 -0.326027,-0.127323 z m 0.745211,-0.9008 c -0.06996,-0.05503 -0.131864,-0.164707 -0.157482,-0.279004 -0.02322,-0.103583 -0.04436,-0.144441 -0.04699,-0.0908 -0.0093,0.189399 0.150999,0.460472 0.272272,0.460472 0.02611,0 -0.0044,-0.0408 -0.0678,-0.09067 l 0,0 z m 0.169416,-0.166013 c -0.220495,-0.347019 -0.378671,-0.500856 -0.378671,-0.368284 0,0.02455 0.02511,0.04468 0.0558,0.04473 0.03069,4.5e-5 0.124232,0.100489 0.20787,0.223203 0.159179,0.23355 0.249979,0.312786 0.115001,0.100355 z"
         style="fill:#ffffff;fill-opacity:1;fill-rule:nonzero;stroke:#fffffa;stroke-width:0.09178104;stroke-linecap:butt;stroke-miterlimit:4;stroke-opacity:1;stroke-dasharray:none" />
    </g>
    <g
       id="g4501"
       transform="translate(0,-48)">
      <g
         id="g4503"
         transform="translate(0,46)">
        <path
           style="fill:#ffffff;fill-opacity:1;fill-rule:nonzero;stroke:#fffffa;stroke-width:0.51921839;stroke-linecap:butt;stroke-miterlimit:4;stroke-opacity:1;stroke-dasharray:none"
           d="m 31.90625,16.125 c -0.955188,0.03727 -2.15625,0.269172 -2.15625,0.5 0,0.04995 0.325766,0.06236 0.71875,0.03125 -1.07119,0.210742 -1.96875,0.550532 -1.96875,0.875 0,0.125612 0.351655,0.0659 0.78125,-0.15625 0.322197,-0.166616 0.62249,-0.290734 0.78125,-0.3125 -0.551441,0.221451 -1.133666,0.505879 -1.5625,0.78125 -0.0192,0.0032 -0.0457,0.02951 -0.0625,0.03125 -0.01483,0.0015 -0.04972,-2.8e-4 -0.0625,0 -0.07408,0.0016 -0.343496,0.169627 -0.6875,0.375 0.0055,-0.0188 0.0019,-0.02681 0.03125,-0.0625 0.682438,-0.830416 -0.158005,-0.39664 -1.625,0.84375 -0.821353,0.69448 -1.582698,1.25 -1.6875,1.25 -0.217814,0 -0.96875,-2.370096 -0.96875,-3.0625 0,-0.762537 -0.468537,-0.535303 -0.875,0.4375 -0.254577,0.609296 -0.36901,1.642411 -0.34375,3.09375 0.03004,1.725669 0.0633,1.931299 0.1875,1.03125 0.08624,-0.625032 0.15279,1.548445 0.125,4.8125 -0.02779,3.264056 0.02741,5.493084 0.125,4.9375 0.05314,-0.302519 0.08936,-0.49102 0.125,-0.53125 0.02964,0.661843 0.0595,1.149098 0.09375,1.28125 0.0035,-0.0041 0.02754,0.0095 0.03125,0 0.01175,-0.03006 0.02032,-0.03867 0.03125,-0.0625 0.01797,0.194267 0.0407,0.180289 0.0625,0.4375 0.01637,0.19316 0.01706,0.392585 0.03125,0.59375 -0.02411,0.0083 -0.03364,0.03347 -0.0625,0.0625 -0.114901,0.115562 -0.136444,0.846262 -0.09375,1.75 -0.07056,-0.429884 -0.105763,-0.315114 -0.0625,1.03125 0.03611,1.123718 0.209979,2.285406 0.375,2.59375 0.168457,0.314765 0.480189,0.51446 0.71875,0.46875 0.598589,-0.114704 0.7471,-1.905234 0.75,-8.96875 l 0,-5.875 0.3125,-0.4375 c -0.149927,0.259103 -0.25,0.454681 -0.25,0.53125 0,0.09201 0.08333,0.16145 0.1875,0.15625 0.253856,-0.01269 1.707276,-2.597302 1.5625,-2.75 0.976452,-1.045809 2.225296,-2.008749 2.9375,-2.1875 0.332911,-0.08356 0.55829,-0.21818 0.5,-0.3125 -0.01457,-0.02358 -0.0088,-0.07222 0,-0.09375 0.05558,-0.02566 0.136161,-0.07144 0.1875,-0.09375 0.03973,-0.01726 0.08744,-0.01593 0.125,-0.03125 0.219096,-0.01048 0.873927,-0.09531 1.46875,-0.1875 0.168779,0.02425 0.30905,0.05267 0.53125,0.09375 0.104656,0.01935 0.187015,0.04208 0.28125,0.0625 -0.260972,0.20917 -0.227221,0.222749 0.21875,0.125 0.07194,-0.01577 0.152657,-0.03094 0.21875,-0.03125 0.01025,0.0029 0.02114,-0.003 0.03125,0 0.176634,0.05204 0.32962,0.122857 0.46875,0.1875 0.03562,0.02727 0.05791,0.05978 0.09375,0.09375 0.08533,0.08087 0.190854,0.191716 0.28125,0.3125 0.276158,0.368992 0.59713,0.789855 0.71875,0.9375 0.44775,0.543564 0.844268,1.424142 0.5625,1.25 -0.194048,-0.119928 -0.27275,0.544969 -0.28125,2.1875 -0.0089,1.720661 -0.229466,3.09178 -0.75,5.125 -0.747705,2.920567 -0.736389,3.262147 0,3.65625 0.393203,0.210437 0.477023,0.112793 0.6875,-0.8125 0.134047,-0.589291 0.582151,-2.260342 0.96875,-3.71875 0.82251,-3.102838 1.002718,-7.824556 0.375,-9.3125 C 35.901434,18.606635 35.6964,18.30359 35.625,18.375 35.607149,18.392851 35.564945,18.372886 35.5,18.34375 35.372017,18.127015 35.204271,17.861307 35,17.625 34.335501,16.856288 33.916896,16.626505 33.03125,16.5 c -0.05645,-0.0081 -0.127786,0.0058 -0.1875,0 l 0.84375,-0.15625 -0.96875,-0.1875 C 32.506171,16.11329 32.224646,16.11258 31.90625,16.125 z m 1.875,0.875 c 0.09503,0 0.371708,0.230673 0.65625,0.53125 C 34.2396,17.359924 34.030476,17.242381 33.84375,17.125 33.798644,17.051163 33.756272,17 33.78125,17 z M 13.125,17.25 c -2.052447,0 -3.001847,2.382067 -1.5,3.78125 1.243067,1.158093 3.21875,0.161683 3.21875,-1.625 0,-1.029106 -0.882452,-2.15625 -1.71875,-2.15625 z m 18.78125,0.25 c 0.414612,0 0.828372,0.09677 1.21875,0.25 -0.0052,0.02332 0.01544,0.03752 0,0.0625 -0.101644,0.164462 -0.02218,0.21745 0.21875,0.125 0.04169,-0.016 0.107124,-0.0311 0.15625,-0.03125 0.440711,0.234128 0.800272,0.567646 1.03125,0.9375 0.311262,0.498415 0.302402,0.48468 -0.625,-0.0625 -2.250108,-1.327596 -5.317304,-0.40803 -8.09375,2.40625 -0.966891,0.980068 -1.694042,1.967396 -1.9375,2.65625 l -0.25,0.6875 C 23.57292,24.5611 23.54237,24.57658 23.5,24.5625 L 23.46875,23.21875 C 23.46565,22.94891 23.49181,22.827753 23.5,22.625 c 0.10438,0.241005 0.1224,0.17415 0.21875,-0.21875 0.04674,-0.190578 -0.0025,-0.436402 -0.125,-0.65625 -0.0045,-0.008 0.0046,-0.02334 0,-0.03125 0.03102,-0.05496 0.05232,-0.05686 0.09375,-0.03125 0.141499,0.08745 1.305528,-0.552559 2.5625,-1.40625 1.249984,-0.848945 2.18244,-1.435471 3,-1.875 0.0051,0.001 0.02782,-0.0021 0.03125,0 0.116469,0.07198 0.21875,0.03408 0.21875,-0.09375 0,-0.02458 0.04397,-0.04376 0.0625,-0.0625 0.0056,-0.0056 -0.0071,-0.02619 0,-0.03125 0.0071,-0.0036 0.02416,0.0036 0.03125,0 0.101715,-0.05363 0.271249,-0.07498 0.5,-0.03125 0.330959,0.06327 0.709377,-0.02064 0.8125,-0.1875 0.133688,-0.216313 0.03893,-0.246457 -0.34375,-0.125 -0.125411,0.03981 -0.252119,0.05153 -0.34375,0.0625 C 30.89461,17.646731 31.434464,17.5 31.90625,17.5 z M 23.5,19.5625 c 0.0213,-0.0213 0.09405,0.03247 0.21875,0.15625 0.17259,0.171305 0.26525,0.35975 0.1875,0.4375 C 23.8285,20.234 23.68859,20.09281 23.59375,19.84375 23.525225,19.663792 23.478703,19.583797 23.5,19.5625 z m 11.59375,1.03125 c -1.56e-4,7.92e-4 0.03136,-8.87e-4 0.03125,0 -0.0045,0.03725 -0.006,0.10744 0.0625,0.3125 0.03068,0.09189 0.03707,0.167213 0.0625,0.25 -0.111705,-0.08954 -0.1875,-0.28038 -0.1875,-0.46875 0,-0.03956 0.01739,-0.07573 0.03125,-0.09375 z m 0.0625,0 c 0.05206,0.0066 0.128145,0.03439 0.21875,0.125 0.103933,0.103934 0.169322,0.223503 0.1875,0.3125 -0.05008,-0.04611 -0.09792,-0.05341 -0.15625,-0.125 -0.161406,-0.198091 -0.204588,-0.277829 -0.25,-0.3125 z M 15.125,22.65625 c -0.152781,-0.0069 -0.301836,0.08998 -0.59375,0.28125 -1.12412,0.736552 -1.058407,1.633354 0.25,3.875 0.483751,0.828745 0.690536,1.017462 0.9375,0.8125 0.253546,-0.210424 0.395142,0.0507 0.625,1.1875 0.484094,2.394157 0.923669,7.607581 0.65625,7.875 -0.131704,0.131705 -0.20527,0.758639 -0.15625,1.375 0.06155,0.773885 0.197102,1.09778 0.4375,1.0625 0.531484,-0.07801 0.758739,-0.40625 0.28125,-0.40625 -0.413768,0 -0.626575,-0.998426 -0.28125,-1.34375 0.184576,-0.184576 0.711758,0.31142 0.90625,0.84375 0.09494,0.259848 0.228392,0.150956 0.4375,-0.375 0.287704,-0.723645 0.296768,-1.252715 -0.125,-5.6875 -0.421672,-4.433779 -1.520246,-8.036149 -2.8125,-9.1875 -0.241551,-0.215211 -0.409719,-0.305643 -0.5625,-0.3125 z m -0.46875,0.9375 c 0.09509,0.0079 0.11677,0.105563 0.0625,0.25 -0.178747,0.475718 1.004119,1.001933 1.40625,0.625 0.227396,-0.213149 0.27455,-0.191219 0.1875,0.09375 -0.117573,0.384905 -1.46875,0.587487 -1.46875,0.21875 0,-0.110628 -0.156471,-0.21875 -0.375,-0.21875 -0.464232,0 -0.415476,-0.778353 0.0625,-0.9375 0.04515,-0.01503 0.0933,-0.03389 0.125,-0.03125 z m 1.9375,2.125 c 0.359229,-0.06608 0.712925,0.343234 0.375,0.5625 -0.151632,0.09839 -0.30907,0.357738 -0.375,0.5625 -0.08072,0.250676 -0.172821,0.164634 -0.28125,-0.25 -0.0967,-0.369789 -0.05759,-0.699651 0.125,-0.8125 0.04924,-0.03043 0.104932,-0.05306 0.15625,-0.0625 z m -1.4375,0.25 c 0.145606,0.0038 0.21875,0.118609 0.21875,0.375 0,0.588706 -0.110781,0.62523 -0.5,0.15625 -0.223554,-0.26937 -0.203332,-0.385999 0.09375,-0.5 0.06623,-0.02541 0.138965,-0.03253 0.1875,-0.03125 z m 19.71875,2.25 c 0.02655,-0.02655 0.05344,-0.007 0.09375,0.09375 0.07295,0.1823 0.08392,0.41608 0,0.5 -0.08392,0.08392 -0.13596,-0.07753 -0.125,-0.34375 0.0061,-0.147096 0.0047,-0.223448 0.03125,-0.25 z m -10.5,0.34375 c 0.04243,0.37559 0.05428,0.84371 0,1.125 -0.01146,0.05938 -0.02096,0.07832 -0.03125,0.09375 0.03836,-0.236317 0.02314,-0.724925 0.03125,-1.21875 z m -6.5625,0.625 c 0.02507,0.01475 0.05582,0.07971 0.0625,0.21875 0.02988,0.621928 -0.657246,0.78119 -0.8125,0.1875 -0.103136,-0.394396 -0.07519,-0.436762 0.1875,-0.21875 0.246845,0.204865 0.37213,0.178315 0.46875,-0.0625 0.04386,-0.109312 0.06868,-0.139746 0.09375,-0.125 z m 16.8125,0.03125 c 0.02655,-0.02655 0.05344,-0.007 0.09375,0.09375 0.07295,0.182301 0.08392,0.41608 0,0.5 -0.08392,0.08392 -0.16722,-0.07753 -0.15625,-0.34375 0.0061,-0.147096 0.03595,-0.223448 0.0625,-0.25 z m -17.1875,1.9375 c 0.03348,-0.01156 0.100969,0.05092 0.1875,0.1875 0.184137,0.290639 0.228168,0.290639 0.34375,0 0.07886,-0.198282 0.14477,-0.07728 0.15625,0.25 0.01096,0.312516 0.0035,0.54222 -0.03125,0.53125 -0.510132,-0.161094 -0.72195,-0.338022 -0.71875,-0.6875 0.0015,-0.16699 0.02902,-0.26969 0.0625,-0.28125 z m 0.8125,2.75 c 0.04845,-0.03491 0.112828,0.155181 0.125,0.53125 0.02101,0.649042 -0.07206,0.90625 -0.34375,0.90625 -0.25565,0 -0.3776,-0.255749 -0.375,-0.78125 0.0027,-0.549041 0.06144,-0.65468 0.21875,-0.40625 0.179254,0.283091 0.24528,0.259546 0.34375,-0.125 0.01698,-0.0663 0.0151,-0.113364 0.03125,-0.125 z"
           transform="translate(0,952.36218)"
           id="path4505"
           inkscape:connector-curvature="0" />
        <path
           style="fill:#ffffff;fill-opacity:1;fill-rule:nonzero;stroke:#fffffa;stroke-width:0.17161937;stroke-linecap:butt;stroke-miterlimit:4;stroke-opacity:1;stroke-dasharray:none"
           d="m 23.294861,39.438511 c -0.142901,-0.120243 -0.315024,-0.325376 -0.382496,-0.455852 -0.276752,-0.53518 -0.469712,-1.997957 -0.621247,-4.709497 -0.09642,-1.7254 -0.346554,-8.139557 -0.332024,-8.51419 0.0053,-0.13773 -0.03,-0.494574 -0.07854,-0.792988 -0.05094,-0.313172 -0.08896,-1.911894 -0.08993,-3.781274 -0.0019,-3.575533 -0.03097,-3.358852 0.560617,-4.171948 0.471139,-0.647551 1.058165,-0.84073 1.323628,-0.435582 0.07527,0.114872 0.225604,0.593795 0.334082,1.064274 0.446628,1.937064 0.419579,1.872709 0.812542,1.933192 0.191448,0.02947 0.479557,0.07398 0.640241,0.09892 l 0.292154,0.04535 -0.281642,-0.241701 -0.281641,-0.241701 0.598888,-0.536269 c 0.800124,-0.716464 1.820353,-1.387714 3.090436,-2.033323 1.358195,-0.690397 1.925562,-0.875518 2.874339,-0.937841 1.494318,-0.09816 2.430671,0.264688 3.55674,1.37827 0.5189,0.513146 0.712552,0.779239 0.981591,1.348778 0.418946,0.886883 0.517171,1.347967 0.57792,2.712855 0.119209,2.678363 -0.544514,8.050869 -1.062762,8.602517 -0.161879,0.172314 -0.690028,2.023763 -0.832019,2.916682 -0.06303,0.39637 -0.912854,2.900123 -1.264505,3.725489 -0.323461,0.7592 -1.032117,0.866158 -1.355508,0.204589 -0.22725,-0.464891 -0.277815,-1.729568 -0.102958,-2.575085 0.244625,-1.182881 1.182924,-4.314344 1.440842,-4.808645 0.06289,-0.120525 0.114573,-0.2666 0.114856,-0.32461 2.51e-4,-0.05801 0.03579,-0.170697 0.0789,-0.250417 0.175092,-0.323757 0.549308,-4.977076 0.486656,-6.051504 -0.03002,-0.514812 -0.107825,-0.85569 -0.309403,-1.355544 -0.511586,-1.268586 -0.856395,-1.511089 -2.271685,-1.597672 -1.081819,-0.06618 -1.556958,0.02997 -2.534876,0.512987 -1.278368,0.631414 -1.904122,1.25611 -2.961316,2.956312 -0.492357,0.791819 -0.65696,0.996454 -0.772121,0.959904 -0.158834,-0.05041 -0.202715,0.08706 -0.05661,0.177358 0.05816,0.03594 0.03073,0.118477 -0.07791,0.234475 -0.282024,0.301107 -0.33832,0.58352 -0.397293,1.993066 -0.03125,0.746842 -0.08318,1.376676 -0.115413,1.399631 -0.03223,0.02295 -0.02442,0.342237 0.01736,0.709515 0.0997,0.876521 0.02392,9.04658 -0.08928,9.62597 -0.121092,0.619754 -0.338965,1.024213 -0.670771,1.245216 -0.365655,0.243548 -0.521653,0.23803 -0.839842,-0.02971 l 0,0 z m 10.189212,-4.897399 c 0.190335,-0.449455 0.331914,-0.827059 0.314619,-0.83912 -0.158978,-0.110866 -0.490597,-0.304342 -0.490796,-0.286346 -1.67e-4,0.01253 -0.07526,0.409141 -0.166945,0.881344 -0.18526,0.954186 -0.216119,1.392489 -0.08354,1.186523 0.04433,-0.06887 0.236325,-0.492945 0.42666,-0.942401 z m -0.07715,-1.746804 c -0.0599,-0.0599 -0.09877,-0.06482 -0.09877,-0.01252 0,0.04744 0.02504,0.111298 0.05565,0.141904 0.03061,0.03061 0.07505,0.03624 0.09878,0.01252 0.02372,-0.02372 -0.0013,-0.08758 -0.05565,-0.141903 z m -8.84808,-5.342237 c -0.0599,-0.0599 -0.09877,-0.06482 -0.09877,-0.01252 0,0.111418 0.09871,0.210133 0.154424,0.154424 0.02372,-0.02372 -0.0013,-0.08758 -0.05565,-0.141903 l 0,0 z"
           id="path4507"
           inkscape:connector-curvature="0"
           transform="translate(0,952.36218)" />
        <path
           style="fill:#ffffff;fill-opacity:1;fill-rule:nonzero;stroke:#fffffa;stroke-width:0.17161937;stroke-linecap:butt;stroke-miterlimit:4;stroke-opacity:1;stroke-dasharray:none"
           d="m 16.823285,39.021297 c -0.07881,-0.166072 -0.163362,-0.594887 -0.187902,-0.952921 -0.03159,-0.460937 -0.07409,-0.639663 -0.14557,-0.612234 -0.07281,0.02794 -0.116574,-0.199648 -0.156998,-0.816496 -0.08279,-1.263292 -0.36122,-3.890331 -0.557272,-5.257934 -0.154282,-1.076224 -0.291272,-1.804362 -0.610279,-3.243775 -0.05596,-0.252504 -0.236273,-0.665693 -0.400695,-0.918197 -0.164422,-0.252504 -0.451143,-0.762066 -0.637157,-1.132359 -0.859517,-1.711016 -0.78572,-2.607188 0.274226,-3.330146 0.637491,-0.434813 0.905634,-0.425856 1.419058,0.0474 0.936874,0.86358 1.70581,2.655786 2.293976,5.346708 0.472805,2.163135 0.859218,5.713689 0.870648,7.999948 0.0072,1.440703 0.0041,1.467361 -0.228386,1.940735 -0.192187,0.391379 -0.273788,0.479967 -0.442112,0.479967 -0.144576,0 -0.249029,-0.07749 -0.348619,-0.258639 -0.348413,-0.633729 -0.601293,-0.825636 -0.601293,-0.456311 0,0.330549 0.150174,0.631477 0.315129,0.631477 0.202156,0 0.352651,0.159743 0.352651,0.374323 0,0.224852 -0.396753,0.460402 -0.775489,0.460402 -0.251891,0 -0.309731,-0.04025 -0.433916,-0.301949 z m 0.03492,-2.974345 c 0.0032,-0.172162 -0.0317,-0.313022 -0.07761,-0.313022 -0.04665,0 -0.08088,0.211726 -0.07761,0.479967 0.0042,0.345324 0.02599,0.433134 0.07761,0.313022 0.03946,-0.09182 0.07438,-0.307805 0.07761,-0.479967 z M 16.71756,35.024414 c 0.02194,-0.114774 0.0075,-0.208681 -0.032,-0.208681 -0.03954,0 -0.0719,0.09391 -0.0719,0.208681 0,0.114775 0.0144,0.208681 0.032,0.208681 0.0176,0 0.04996,-0.09391 0.0719,-0.208681 z m 1.398602,-0.208681 c 0,-0.0864 -0.03756,-0.180307 -0.08347,-0.208681 -0.04883,-0.03018 -0.08347,0.05642 -0.08347,0.208681 0,0.152258 0.03464,0.238861 0.08347,0.208681 0.04591,-0.02837 0.08347,-0.12228 0.08347,-0.208681 z m -1.585977,-3.018921 c 0,-0.03826 -0.03712,-0.06956 -0.08248,-0.06956 -0.04537,0 -0.106714,-0.151509 -0.136325,-0.336686 -0.02961,-0.185178 -0.07214,-0.318382 -0.09452,-0.29601 -0.02237,0.02237 -0.01601,0.205184 0.01414,0.406247 0.03604,0.240307 0.09669,0.36557 0.177001,0.36557 0.0672,0 0.12218,-0.0313 0.12218,-0.06956 l 0,0 z m 0.230135,-5.793794 c -0.08215,-0.08215 -0.230135,0.04396 -0.230135,0.196129 0,0.127419 0.01098,0.12719 0.141109,-0.0029 0.07761,-0.07761 0.117671,-0.164545 0.08903,-0.19319 l 0,0 z"
           id="path4509"
           inkscape:connector-curvature="0"
           transform="translate(0,952.36218)" />
      </g>
      <path
         style="fill:#ffffff;fill-opacity:1;fill-rule:nonzero;stroke:#fffffa;stroke-width:0.09178104;stroke-linecap:butt;stroke-miterlimit:4;stroke-opacity:1;stroke-dasharray:none"
         d="m 16.905625,85.251776 c -0.159674,-0.159674 -0.242961,-0.451358 -0.332906,-1.165894 -0.0459,-0.364611 -0.0912,-0.568469 -0.131309,-0.590917 -0.08631,-0.0483 -0.102275,-0.137854 -0.181414,-1.017504 -0.334003,-3.712562 -0.559905,-5.448309 -0.96443,-7.410336 -0.234719,-1.138432 -0.288319,-1.290962 -0.713753,-2.031146 -1.295066,-2.253202 -1.418977,-3.242377 -0.510445,-4.074881 0.29984,-0.274749 0.84289,-0.59006 1.016241,-0.59006 0.226218,0 0.456511,0.11979 0.746567,0.388338 0.71564,0.662573 1.252437,1.65309 1.783891,3.291698 0.612969,1.889941 1.04981,4.430373 1.320787,7.680992 0.09907,1.188479 0.139203,3.458454 0.06758,3.822531 -0.06275,0.318952 -0.268807,0.760916 -0.439585,0.94285 -0.166015,0.17686 -0.376537,0.16843 -0.557384,-0.02232 -0.07565,-0.0798 -0.122704,-0.119971 -0.104557,-0.08928 0.01946,0.0329 0.009,0.05636 -0.02544,0.05716 -0.03421,7.95e-4 -0.02431,0.02119 0.02387,0.0492 0.120932,0.0703 0.215841,0.324753 0.167663,0.449514 -0.09423,0.244014 -0.465303,0.437381 -0.83934,0.437381 -0.158973,0 -0.224163,-0.02546 -0.326027,-0.127323 z m 0.745211,-0.9008 c -0.06996,-0.05503 -0.131864,-0.164707 -0.157482,-0.279004 -0.02322,-0.103583 -0.04436,-0.144441 -0.04699,-0.0908 -0.0093,0.189399 0.150999,0.460472 0.272272,0.460472 0.02611,0 -0.0044,-0.0408 -0.0678,-0.09067 l 0,0 z m 0.169416,-0.166013 c -0.220495,-0.347019 -0.378671,-0.500856 -0.378671,-0.368284 0,0.02455 0.02511,0.04468 0.0558,0.04473 0.03069,4.5e-5 0.124232,0.100489 0.20787,0.223203 0.159179,0.23355 0.249979,0.312786 0.115001,0.100355 z"
         id="path4511"
         inkscape:connector-curvature="0"
         transform="translate(0,952.36218)" />
    </g>
  </g>
</svg>
