<?xml version="1.0" encoding="UTF-8" standalone="no"?>
<!-- Created with Inkscape (http://www.inkscape.org/) -->

<svg
   xmlns:dc="http://purl.org/dc/elements/1.1/"
   xmlns:cc="http://creativecommons.org/ns#"
   xmlns:rdf="http://www.w3.org/1999/02/22-rdf-syntax-ns#"
   xmlns:svg="http://www.w3.org/2000/svg"
   xmlns="http://www.w3.org/2000/svg"
   xmlns:sodipodi="http://sodipodi.sourceforge.net/DTD/sodipodi-0.dtd"
   xmlns:inkscape="http://www.inkscape.org/namespaces/inkscape"
   width="52"
   height="104"
   id="svg2"
   version="1.1"
   inkscape:version="0.48.2 r9819"
   sodipodi:docname="fb_icon.svg"
   inkscape:export-filename="/Users/ceciliareyes/Desktop/Website/fb_icon.png"
   inkscape:export-xdpi="91.889053"
   inkscape:export-ydpi="91.889053">
  <defs
     id="defs4" />
  <sodipodi:namedview
     id="base"
     pagecolor="#ffffff"
     bordercolor="#666666"
     borderopacity="1.0"
     inkscape:pageopacity="0.0"
     inkscape:pageshadow="2"
     inkscape:zoom="4.98"
     inkscape:cx="37.395836"
     inkscape:cy="51.786758"
     inkscape:document-units="px"
     inkscape:current-layer="layer1"
     showgrid="false"
     showguides="true"
     inkscape:guide-bbox="true"
     inkscape:window-width="931"
     inkscape:window-height="737"
     inkscape:window-x="277"
     inkscape:window-y="136"
     inkscape:window-maximized="0">
    <sodipodi:guide
       orientation="1,0"
       position="-26.400862,67.025862"
       id="guide3793" />
  </sodipodi:namedview>
  <metadata
     id="metadata7">
    <rdf:RDF>
      <cc:Work
         rdf:about="">
        <dc:format>image/svg+xml</dc:format>
        <dc:type
           rdf:resource="http://purl.org/dc/dcmitype/StillImage" />
        <dc:title></dc:title>
      </cc:Work>
    </rdf:RDF>
  </metadata>
  <g
     inkscape:label="Layer 1"
     inkscape:groupmode="layer"
     id="layer1"
     transform="translate(0,-948.36218)">
    <path
       sodipodi:type="arc"
       style="fill:#82050c;fill-opacity:1;fill-rule:nonzero;stroke:none"
       id="path2985"
       sodipodi:cx="27.475248"
       sodipodi:cy="33.20792"
       sodipodi:rx="19.801981"
       sodipodi:ry="23.267326"
       d="m 47.277229,33.20792 c 0,12.85019 -8.865649,23.267326 -19.801981,23.267326 -10.936332,0 -19.8019806,-10.417136 -19.8019806,-23.267326 0,-12.850189 8.8656486,-23.2673263 19.8019806,-23.2673263 10.936332,0 19.801981,10.4171373 19.801981,23.2673263 z"
       transform="matrix(1.1477014,0,0,0.95017143,-7.0284305,943.13074)"
       inkscape:export-xdpi="91.889053"
       inkscape:export-ydpi="91.889053"
       inkscape:export-filename="/Users/ceciliareyes/Desktop/Website/fb_icon.png" />
    <path
       transform="matrix(1.1477014,0,0,0.95017143,-7.02843,995.13074)"
       d="m 47.277229,33.20792 c 0,12.85019 -8.865649,23.267326 -19.801981,23.267326 -10.936332,0 -19.8019806,-10.417136 -19.8019806,-23.267326 0,-12.850189 8.8656486,-23.2673263 19.8019806,-23.2673263 10.936332,0 19.801981,10.4171373 19.801981,23.2673263 z"
       sodipodi:ry="23.267326"
       sodipodi:rx="19.801981"
       sodipodi:cy="33.20792"
       sodipodi:cx="27.475248"
       id="path2987"
       style="fill:#7d05b9;fill-opacity:1;fill-rule:nonzero;stroke:none"
       sodipodi:type="arc" />
    <g
       id="g3813"
       transform="translate(-2,-4)">
      <g
         style="fill:#ffffff;stroke:none"
         transform="matrix(0.85847923,0,0,0.83866161,37.963633,160.83298)"
         id="g3803">
        <path
           style="fill:#ffffff;fill-opacity:1;fill-rule:nonzero;stroke:none"
           id="path3799"
           d="M -4.900703,12.597714 C -5.3666495,11.998813 -5.8452001,11.411057 -6.3516175,10.845603 -7.1544486,9.9666888 -8.0446736,9.1768312 -8.9810076,8.4442318 -9.8704166,7.7627589 -10.833954,7.1918678 -11.853966,6.7313744 -12.464916,6.4886349 -13.1423,6.2349221 -13.814014,6.3366396 c -0.100862,0.015274 -0.197759,0.050172 -0.296638,0.075259 -0.717487,0.2600071 -1.142278,0.8727377 -1.530742,1.4933629 -0.592617,1.0166882 -0.911212,2.1490495 -1.157341,3.2906785 -0.24373,1.190527 -0.301655,2.404842 -0.326119,3.616099 -0.0031,0.153633 0.0058,-0.307271 0.0088,-0.460907 0.0068,1.514751 0.192413,3.01887 0.414969,4.514532 0.186993,1.202622 0.410144,2.399167 0.664184,3.589332 0.239452,0.947736 0.42975,1.901863 0.580553,2.867455 0.220073,1.255643 0.28348,2.530482 0.369791,3.800234 0.09716,1.531595 0.272352,3.056529 0.427087,4.582977 0.16398,1.420393 0.241305,2.847036 0.264611,4.275986 0.03488,1.704579 0.0014,3.407935 -0.12834,5.107546 -0.07726,0.992396 -0.231048,1.973639 -0.524643,2.925124 -0.242861,0.745552 -0.649228,1.404593 -1.144456,2.005701 -0.481995,0.523818 -0.922971,0.785511 -1.599146,0.985427 -0.580238,0.138721 -1.128667,0.09645 -1.698151,-0.0573 -0.485281,-0.144641 -0.922958,-0.397196 -1.339529,-0.679134 -0.232474,-0.158069 -0.444736,-0.342078 -0.652762,-0.530347 -0.225894,-0.08627 0.645554,-2.368145 0.871449,-2.281876 l 0,0 c 0.153666,0.178536 0.309628,0.356142 0.488527,0.510286 0.289322,0.249627 0.595043,0.484299 0.955326,0.622764 0.343057,0.123818 0.693052,0.174977 1.051216,0.07292 0.411037,-0.134906 0.745536,-0.383783 1.014569,-0.724712 0.393911,-0.507564 0.688449,-1.074128 0.867969,-1.693365 0.244914,-0.867439 0.407143,-1.754515 0.492861,-2.652225 0.05591,-0.566564 0.104572,-1.132012 0.132991,-1.700758 0.01021,-0.204392 0.0185,-0.408881 0.02575,-0.613399 0.0075,-0.211528 -0.158482,-0.75075 0.01854,-0.634713 0.182594,0.119693 0.0081,0.43658 0.01221,0.65487 0.0092,-1.434308 -0.0054,-2.869475 -0.15483,-4.297755 -0.132435,-1.518694 -0.277987,-3.036229 -0.454557,-4.550506 -0.141826,-1.184819 -0.298854,-2.367642 -0.489637,-3.545696 -0.173194,-0.962836 -0.402614,-1.914444 -0.551312,-2.881885 -0.200113,-1.269971 -0.381004,-2.542765 -0.536544,-3.819048 -0.198988,-1.535555 -0.395782,-3.074113 -0.455395,-4.622744 -0.0026,-1.941409 -0.02866,-3.893417 0.372158,-5.8047746 0.280125,-1.2716926 0.622505,-2.541766 1.283016,-3.676322 0.09942,-0.1526436 0.191175,-0.3105653 0.298265,-0.4579308 0.489625,-0.6737746 1.131077,-1.1845537 1.9488,-1.3864163 0.155568,-0.021457 0.309909,-0.055564 0.466702,-0.06437 0.830744,-0.046661 1.636282,0.2681144 2.376176,0.6070365 1.055795,0.5419338 2.0668799,1.1642066 3.0197445,1.8730468 0.9608559,0.7318787 1.8771947,1.5149989 2.7648472,2.3343562 0.3023133,0.2615148 0.4393708,0.3885302 0.749299,0.6260635 0.2042662,0.1565524 0.4537805,0.3796357 0.7244917,0.4004447 0.2539973,0.07043 -0.4574271,2.636187 -0.7114244,2.56576 z"
           inkscape:connector-curvature="0"
           transform="translate(0,948.36218)" />
        <path
           style="fill:#ffffff;fill-opacity:1;fill-rule:nonzero;stroke:none"
           id="path3801"
           d="m -25.025275,976.14691 c 0.125355,0.15304 0.656395,-0.0118 0.78585,-0.0456 0.446752,-0.11645 0.551484,-0.16541 1.005394,-0.3262 1.346963,-0.52254 2.634129,-1.17999 3.915286,-1.84369 1.332345,-0.69146 2.657133,-1.39707 4.005737,-2.05652 1.285709,-0.61959 2.620604,-1.12458 3.985028,-1.53944 1.112963,-0.33729 2.2570116,-0.54673 3.4081432,-0.69892 0.444855,-0.0564 0.8926335,-0.0802 1.3400408,-0.1046 0.2113094,-10e-4 0.2240162,2.13329 0.012707,2.13454 l 0,0 c -0.4228102,-0.0131 -0.8457278,-0.0229 -1.2687311,-0.009 -1.1000899,0.0514 -2.1946099,0.18256 -3.2634829,0.4574 -1.330684,0.35331 -2.627414,0.81111 -3.865767,1.41797 -1.346673,0.64112 -2.672228,1.32396 -3.992546,2.01753 -1.30802,0.67442 -2.619591,1.34281 -3.90181,2.06576 -0.467099,0.27021 -0.934004,0.54024 -1.403706,0.80587 -0.238885,0.13509 -0.345632,0.20885 -0.587745,0.31117 -0.05657,0.0239 -0.116266,0.0396 -0.174398,0.0594 -0.261948,0 -0.261948,-2.64606 0,-2.64606 z"
           inkscape:connector-curvature="0" />
      </g>
      <g
         id="g3807"
         transform="matrix(0.85847923,0,0,0.83866161,38.663337,161.33266)"
         style="fill:#ffffff;stroke:none">
        <path
           transform="translate(0,948.36218)"
           inkscape:connector-curvature="0"
           d="M -4.900703,12.597714 C -5.3666495,11.998813 -5.8452001,11.411057 -6.3516175,10.845603 -7.1544486,9.9666888 -8.0446736,9.1768312 -8.9810076,8.4442318 -9.8704166,7.7627589 -10.833954,7.1918678 -11.853966,6.7313744 -12.464916,6.4886349 -13.1423,6.2349221 -13.814014,6.3366396 c -0.100862,0.015274 -0.197759,0.050172 -0.296638,0.075259 -0.717487,0.2600071 -1.142278,0.8727377 -1.530742,1.4933629 -0.592617,1.0166882 -0.911212,2.1490495 -1.157341,3.2906785 -0.24373,1.190527 -0.301655,2.404842 -0.326119,3.616099 -0.0031,0.153633 0.0058,-0.307271 0.0088,-0.460907 0.0068,1.514751 0.192413,3.01887 0.414969,4.514532 0.186993,1.202622 0.410144,2.399167 0.664184,3.589332 0.239452,0.947736 0.42975,1.901863 0.580553,2.867455 0.220073,1.255643 0.28348,2.530482 0.369791,3.800234 0.09716,1.531595 0.272352,3.056529 0.427087,4.582977 0.16398,1.420393 0.241305,2.847036 0.264611,4.275986 0.03488,1.704579 0.0014,3.407935 -0.12834,5.107546 -0.07726,0.992396 -0.231048,1.973639 -0.524643,2.925124 -0.242861,0.745552 -0.649228,1.404593 -1.144456,2.005701 -0.481995,0.523818 -0.922971,0.785511 -1.599146,0.985427 -0.580238,0.138721 -1.128667,0.09645 -1.698151,-0.0573 -0.485281,-0.144641 -0.922958,-0.397196 -1.339529,-0.679134 -0.232474,-0.158069 -0.444736,-0.342078 -0.652762,-0.530347 -0.225894,-0.08627 0.645554,-2.368145 0.871449,-2.281876 l 0,0 c 0.153666,0.178536 0.309628,0.356142 0.488527,0.510286 0.289322,0.249627 0.595043,0.484299 0.955326,0.622764 0.343057,0.123818 0.693052,0.174977 1.051216,0.07292 0.411037,-0.134906 0.745536,-0.383783 1.014569,-0.724712 0.393911,-0.507564 0.688449,-1.074128 0.867969,-1.693365 0.244914,-0.867439 0.407143,-1.754515 0.492861,-2.652225 0.05591,-0.566564 0.104572,-1.132012 0.132991,-1.700758 0.01021,-0.204392 0.0185,-0.408881 0.02575,-0.613399 0.0075,-0.211528 -0.158482,-0.75075 0.01854,-0.634713 0.182594,0.119693 0.0081,0.43658 0.01221,0.65487 0.0092,-1.434308 -0.0054,-2.869475 -0.15483,-4.297755 -0.132435,-1.518694 -0.277987,-3.036229 -0.454557,-4.550506 -0.141826,-1.184819 -0.298854,-2.367642 -0.489637,-3.545696 -0.173194,-0.962836 -0.402614,-1.914444 -0.551312,-2.881885 -0.200113,-1.269971 -0.381004,-2.542765 -0.536544,-3.819048 -0.198988,-1.535555 -0.395782,-3.074113 -0.455395,-4.622744 -0.0026,-1.941409 -0.02866,-3.893417 0.372158,-5.8047746 0.280125,-1.2716926 0.622505,-2.541766 1.283016,-3.676322 0.09942,-0.1526436 0.191175,-0.3105653 0.298265,-0.4579308 0.489625,-0.6737746 1.131077,-1.1845537 1.9488,-1.3864163 0.155568,-0.021457 0.309909,-0.055564 0.466702,-0.06437 0.830744,-0.046661 1.636282,0.2681144 2.376176,0.6070365 1.055795,0.5419338 2.0668799,1.1642066 3.0197445,1.8730468 0.9608559,0.7318787 1.8771947,1.5149989 2.7648472,2.3343562 0.3023133,0.2615148 0.4393708,0.3885302 0.749299,0.6260635 0.2042662,0.1565524 0.4537805,0.3796357 0.7244917,0.4004447 0.2539973,0.07043 -0.4574271,2.636187 -0.7114244,2.56576 z"
           id="path3809"
           style="fill:#ffffff;fill-opacity:1;fill-rule:nonzero;stroke:none" />
        <path
           inkscape:connector-curvature="0"
           d="m -25.025275,976.14691 c 0.125355,0.15304 0.656395,-0.0118 0.78585,-0.0456 0.446752,-0.11645 0.551484,-0.16541 1.005394,-0.3262 1.346963,-0.52254 2.634129,-1.17999 3.915286,-1.84369 1.332345,-0.69146 2.657133,-1.39707 4.005737,-2.05652 1.285709,-0.61959 2.620604,-1.12458 3.985028,-1.53944 1.112963,-0.33729 2.2570116,-0.54673 3.4081432,-0.69892 0.444855,-0.0564 0.8926335,-0.0802 1.3400408,-0.1046 0.2113094,-10e-4 0.2240162,2.13329 0.012707,2.13454 l 0,0 c -0.4228102,-0.0131 -0.8457278,-0.0229 -1.2687311,-0.009 -1.1000899,0.0514 -2.1946099,0.18256 -3.2634829,0.4574 -1.330684,0.35331 -2.627414,0.81111 -3.865767,1.41797 -1.346673,0.64112 -2.672228,1.32396 -3.992546,2.01753 -1.30802,0.67442 -2.619591,1.34281 -3.90181,2.06576 -0.467099,0.27021 -0.934004,0.54024 -1.403706,0.80587 -0.238885,0.13509 -0.345632,0.20885 -0.587745,0.31117 -0.05657,0.0239 -0.116266,0.0396 -0.174398,0.0594 -0.261948,0 -0.261948,-2.64606 0,-2.64606 z"
           id="path3811"
           style="fill:#ffffff;fill-opacity:1;fill-rule:nonzero;stroke:none" />
      </g>
    </g>
    <g
       id="g3821"
       transform="translate(-2,48)">
      <g
         id="g3823"
         transform="matrix(0.85847923,0,0,0.83866161,37.963633,160.83298)"
         style="fill:#ffffff;stroke:none">
        <path
           transform="translate(0,948.36218)"
           inkscape:connector-curvature="0"
           d="M -4.900703,12.597714 C -5.3666495,11.998813 -5.8452001,11.411057 -6.3516175,10.845603 -7.1544486,9.9666888 -8.0446736,9.1768312 -8.9810076,8.4442318 -9.8704166,7.7627589 -10.833954,7.1918678 -11.853966,6.7313744 -12.464916,6.4886349 -13.1423,6.2349221 -13.814014,6.3366396 c -0.100862,0.015274 -0.197759,0.050172 -0.296638,0.075259 -0.717487,0.2600071 -1.142278,0.8727377 -1.530742,1.4933629 -0.592617,1.0166882 -0.911212,2.1490495 -1.157341,3.2906785 -0.24373,1.190527 -0.301655,2.404842 -0.326119,3.616099 -0.0031,0.153633 0.0058,-0.307271 0.0088,-0.460907 0.0068,1.514751 0.192413,3.01887 0.414969,4.514532 0.186993,1.202622 0.410144,2.399167 0.664184,3.589332 0.239452,0.947736 0.42975,1.901863 0.580553,2.867455 0.220073,1.255643 0.28348,2.530482 0.369791,3.800234 0.09716,1.531595 0.272352,3.056529 0.427087,4.582977 0.16398,1.420393 0.241305,2.847036 0.264611,4.275986 0.03488,1.704579 0.0014,3.407935 -0.12834,5.107546 -0.07726,0.992396 -0.231048,1.973639 -0.524643,2.925124 -0.242861,0.745552 -0.649228,1.404593 -1.144456,2.005701 -0.481995,0.523818 -0.922971,0.785511 -1.599146,0.985427 -0.580238,0.138721 -1.128667,0.09645 -1.698151,-0.0573 -0.485281,-0.144641 -0.922958,-0.397196 -1.339529,-0.679134 -0.232474,-0.158069 -0.444736,-0.342078 -0.652762,-0.530347 -0.225894,-0.08627 0.645554,-2.368145 0.871449,-2.281876 l 0,0 c 0.153666,0.178536 0.309628,0.356142 0.488527,0.510286 0.289322,0.249627 0.595043,0.484299 0.955326,0.622764 0.343057,0.123818 0.693052,0.174977 1.051216,0.07292 0.411037,-0.134906 0.745536,-0.383783 1.014569,-0.724712 0.393911,-0.507564 0.688449,-1.074128 0.867969,-1.693365 0.244914,-0.867439 0.407143,-1.754515 0.492861,-2.652225 0.05591,-0.566564 0.104572,-1.132012 0.132991,-1.700758 0.01021,-0.204392 0.0185,-0.408881 0.02575,-0.613399 0.0075,-0.211528 -0.158482,-0.75075 0.01854,-0.634713 0.182594,0.119693 0.0081,0.43658 0.01221,0.65487 0.0092,-1.434308 -0.0054,-2.869475 -0.15483,-4.297755 -0.132435,-1.518694 -0.277987,-3.036229 -0.454557,-4.550506 -0.141826,-1.184819 -0.298854,-2.367642 -0.489637,-3.545696 -0.173194,-0.962836 -0.402614,-1.914444 -0.551312,-2.881885 -0.200113,-1.269971 -0.381004,-2.542765 -0.536544,-3.819048 -0.198988,-1.535555 -0.395782,-3.074113 -0.455395,-4.622744 -0.0026,-1.941409 -0.02866,-3.893417 0.372158,-5.8047746 0.280125,-1.2716926 0.622505,-2.541766 1.283016,-3.676322 0.09942,-0.1526436 0.191175,-0.3105653 0.298265,-0.4579308 0.489625,-0.6737746 1.131077,-1.1845537 1.9488,-1.3864163 0.155568,-0.021457 0.309909,-0.055564 0.466702,-0.06437 0.830744,-0.046661 1.636282,0.2681144 2.376176,0.6070365 1.055795,0.5419338 2.0668799,1.1642066 3.0197445,1.8730468 0.9608559,0.7318787 1.8771947,1.5149989 2.7648472,2.3343562 0.3023133,0.2615148 0.4393708,0.3885302 0.749299,0.6260635 0.2042662,0.1565524 0.4537805,0.3796357 0.7244917,0.4004447 0.2539973,0.07043 -0.4574271,2.636187 -0.7114244,2.56576 z"
           id="path3825"
           style="fill:#ffffff;fill-opacity:1;fill-rule:nonzero;stroke:none" />
        <path
           inkscape:connector-curvature="0"
           d="m -25.025275,976.14691 c 0.125355,0.15304 0.656395,-0.0118 0.78585,-0.0456 0.446752,-0.11645 0.551484,-0.16541 1.005394,-0.3262 1.346963,-0.52254 2.634129,-1.17999 3.915286,-1.84369 1.332345,-0.69146 2.657133,-1.39707 4.005737,-2.05652 1.285709,-0.61959 2.620604,-1.12458 3.985028,-1.53944 1.112963,-0.33729 2.2570116,-0.54673 3.4081432,-0.69892 0.444855,-0.0564 0.8926335,-0.0802 1.3400408,-0.1046 0.2113094,-10e-4 0.2240162,2.13329 0.012707,2.13454 l 0,0 c -0.4228102,-0.0131 -0.8457278,-0.0229 -1.2687311,-0.009 -1.1000899,0.0514 -2.1946099,0.18256 -3.2634829,0.4574 -1.330684,0.35331 -2.627414,0.81111 -3.865767,1.41797 -1.346673,0.64112 -2.672228,1.32396 -3.992546,2.01753 -1.30802,0.67442 -2.619591,1.34281 -3.90181,2.06576 -0.467099,0.27021 -0.934004,0.54024 -1.403706,0.80587 -0.238885,0.13509 -0.345632,0.20885 -0.587745,0.31117 -0.05657,0.0239 -0.116266,0.0396 -0.174398,0.0594 -0.261948,0 -0.261948,-2.64606 0,-2.64606 z"
           id="path3827"
           style="fill:#ffffff;fill-opacity:1;fill-rule:nonzero;stroke:none" />
      </g>
      <g
         style="fill:#ffffff;stroke:none"
         transform="matrix(0.85847923,0,0,0.83866161,38.663337,161.33266)"
         id="g3829">
        <path
           style="fill:#ffffff;fill-opacity:1;fill-rule:nonzero;stroke:none"
           id="path3831"
           d="M -4.900703,12.597714 C -5.3666495,11.998813 -5.8452001,11.411057 -6.3516175,10.845603 -7.1544486,9.9666888 -8.0446736,9.1768312 -8.9810076,8.4442318 -9.8704166,7.7627589 -10.833954,7.1918678 -11.853966,6.7313744 -12.464916,6.4886349 -13.1423,6.2349221 -13.814014,6.3366396 c -0.100862,0.015274 -0.197759,0.050172 -0.296638,0.075259 -0.717487,0.2600071 -1.142278,0.8727377 -1.530742,1.4933629 -0.592617,1.0166882 -0.911212,2.1490495 -1.157341,3.2906785 -0.24373,1.190527 -0.301655,2.404842 -0.326119,3.616099 -0.0031,0.153633 0.0058,-0.307271 0.0088,-0.460907 0.0068,1.514751 0.192413,3.01887 0.414969,4.514532 0.186993,1.202622 0.410144,2.399167 0.664184,3.589332 0.239452,0.947736 0.42975,1.901863 0.580553,2.867455 0.220073,1.255643 0.28348,2.530482 0.369791,3.800234 0.09716,1.531595 0.272352,3.056529 0.427087,4.582977 0.16398,1.420393 0.241305,2.847036 0.264611,4.275986 0.03488,1.704579 0.0014,3.407935 -0.12834,5.107546 -0.07726,0.992396 -0.231048,1.973639 -0.524643,2.925124 -0.242861,0.745552 -0.649228,1.404593 -1.144456,2.005701 -0.481995,0.523818 -0.922971,0.785511 -1.599146,0.985427 -0.580238,0.138721 -1.128667,0.09645 -1.698151,-0.0573 -0.485281,-0.144641 -0.922958,-0.397196 -1.339529,-0.679134 -0.232474,-0.158069 -0.444736,-0.342078 -0.652762,-0.530347 -0.225894,-0.08627 0.645554,-2.368145 0.871449,-2.281876 l 0,0 c 0.153666,0.178536 0.309628,0.356142 0.488527,0.510286 0.289322,0.249627 0.595043,0.484299 0.955326,0.622764 0.343057,0.123818 0.693052,0.174977 1.051216,0.07292 0.411037,-0.134906 0.745536,-0.383783 1.014569,-0.724712 0.393911,-0.507564 0.688449,-1.074128 0.867969,-1.693365 0.244914,-0.867439 0.407143,-1.754515 0.492861,-2.652225 0.05591,-0.566564 0.104572,-1.132012 0.132991,-1.700758 0.01021,-0.204392 0.0185,-0.408881 0.02575,-0.613399 0.0075,-0.211528 -0.158482,-0.75075 0.01854,-0.634713 0.182594,0.119693 0.0081,0.43658 0.01221,0.65487 0.0092,-1.434308 -0.0054,-2.869475 -0.15483,-4.297755 -0.132435,-1.518694 -0.277987,-3.036229 -0.454557,-4.550506 -0.141826,-1.184819 -0.298854,-2.367642 -0.489637,-3.545696 -0.173194,-0.962836 -0.402614,-1.914444 -0.551312,-2.881885 -0.200113,-1.269971 -0.381004,-2.542765 -0.536544,-3.819048 -0.198988,-1.535555 -0.395782,-3.074113 -0.455395,-4.622744 -0.0026,-1.941409 -0.02866,-3.893417 0.372158,-5.8047746 0.280125,-1.2716926 0.622505,-2.541766 1.283016,-3.676322 0.09942,-0.1526436 0.191175,-0.3105653 0.298265,-0.4579308 0.489625,-0.6737746 1.131077,-1.1845537 1.9488,-1.3864163 0.155568,-0.021457 0.309909,-0.055564 0.466702,-0.06437 0.830744,-0.046661 1.636282,0.2681144 2.376176,0.6070365 1.055795,0.5419338 2.0668799,1.1642066 3.0197445,1.8730468 0.9608559,0.7318787 1.8771947,1.5149989 2.7648472,2.3343562 0.3023133,0.2615148 0.4393708,0.3885302 0.749299,0.6260635 0.2042662,0.1565524 0.4537805,0.3796357 0.7244917,0.4004447 0.2539973,0.07043 -0.4574271,2.636187 -0.7114244,2.56576 z"
           inkscape:connector-curvature="0"
           transform="translate(0,948.36218)" />
        <path
           style="fill:#ffffff;fill-opacity:1;fill-rule:nonzero;stroke:none"
           id="path3833"
           d="m -25.025275,976.14691 c 0.125355,0.15304 0.656395,-0.0118 0.78585,-0.0456 0.446752,-0.11645 0.551484,-0.16541 1.005394,-0.3262 1.346963,-0.52254 2.634129,-1.17999 3.915286,-1.84369 1.332345,-0.69146 2.657133,-1.39707 4.005737,-2.05652 1.285709,-0.61959 2.620604,-1.12458 3.985028,-1.53944 1.112963,-0.33729 2.2570116,-0.54673 3.4081432,-0.69892 0.444855,-0.0564 0.8926335,-0.0802 1.3400408,-0.1046 0.2113094,-10e-4 0.2240162,2.13329 0.012707,2.13454 l 0,0 c -0.4228102,-0.0131 -0.8457278,-0.0229 -1.2687311,-0.009 -1.1000899,0.0514 -2.1946099,0.18256 -3.2634829,0.4574 -1.330684,0.35331 -2.627414,0.81111 -3.865767,1.41797 -1.346673,0.64112 -2.672228,1.32396 -3.992546,2.01753 -1.30802,0.67442 -2.619591,1.34281 -3.90181,2.06576 -0.467099,0.27021 -0.934004,0.54024 -1.403706,0.80587 -0.238885,0.13509 -0.345632,0.20885 -0.587745,0.31117 -0.05657,0.0239 -0.116266,0.0396 -0.174398,0.0594 -0.261948,0 -0.261948,-2.64606 0,-2.64606 z"
           inkscape:connector-curvature="0" />
      </g>
    </g>
  </g>
</svg>
