<?xml version="1.0" encoding="UTF-8" standalone="no"?>
<!-- Created with Inkscape (http://www.inkscape.org/) -->

<svg
   xmlns:dc="http://purl.org/dc/elements/1.1/"
   xmlns:cc="http://creativecommons.org/ns#"
   xmlns:rdf="http://www.w3.org/1999/02/22-rdf-syntax-ns#"
   xmlns:svg="http://www.w3.org/2000/svg"
   xmlns="http://www.w3.org/2000/svg"
   xmlns:sodipodi="http://sodipodi.sourceforge.net/DTD/sodipodi-0.dtd"
   xmlns:inkscape="http://www.inkscape.org/namespaces/inkscape"
   width="50"
   height="100"
   id="svg2"
   version="1.1"
   inkscape:version="0.48.2 r9819"
   sodipodi:docname="twitter_icon.svg"
   inkscape:export-filename="/Users/ceciliareyes/Desktop/Website/twitter_icon.png"
   inkscape:export-xdpi="91.889053"
   inkscape:export-ydpi="91.889053">
  <defs
     id="defs4" />
  <sodipodi:namedview
     id="base"
     pagecolor="#ffffff"
     bordercolor="#666666"
     borderopacity="1.0"
     inkscape:pageopacity="0.0"
     inkscape:pageshadow="2"
     inkscape:zoom="3.959798"
     inkscape:cx="69.082663"
     inkscape:cy="19.492373"
     inkscape:document-units="px"
     inkscape:current-layer="layer1"
     showgrid="false"
     inkscape:window-width="1072"
     inkscape:window-height="756"
     inkscape:window-x="259"
     inkscape:window-y="0"
     inkscape:window-maximized="0" />
  <metadata
     id="metadata7">
    <rdf:RDF>
      <cc:Work
         rdf:about="">
        <dc:format>image/svg+xml</dc:format>
        <dc:type
           rdf:resource="http://purl.org/dc/dcmitype/StillImage" />
        <dc:title></dc:title>
      </cc:Work>
    </rdf:RDF>
  </metadata>
  <g
     inkscape:label="Layer 1"
     inkscape:groupmode="layer"
     id="layer1"
     transform="translate(0,-952.36212)">
    <path
       transform="matrix(1.0280899,0,0,0.97927462,0.67958302,1003.4114)"
       d="m 47.729708,26.132595 c 0,13.459141 -10.062801,24.36993 -22.475895,24.36993 -12.413094,0 -22.4758951,-10.910789 -22.4758951,-24.36993 0,-13.459141 10.0628011,-24.3699302 22.4758951,-24.3699302 12.413094,0 22.475895,10.9107892 22.475895,24.3699302 z"
       sodipodi:ry="24.36993"
       sodipodi:rx="22.475895"
       sodipodi:cy="26.132595"
       sodipodi:cx="25.253813"
       id="path2987"
       style="fill:#6f1faa;fill-opacity:1;fill-rule:nonzero;stroke:none"
       sodipodi:type="arc"
       inkscape:export-xdpi="90"
       inkscape:export-ydpi="90" />
    <path
       sodipodi:type="arc"
       style="fill:#b8a925;fill-opacity:1;fill-rule:nonzero;stroke:none"
       id="path2989"
       sodipodi:cx="25.253813"
       sodipodi:cy="26.132595"
       sodipodi:rx="22.475895"
       sodipodi:ry="24.36993"
       d="m 47.729708,26.132595 c 0,13.459141 -10.062801,24.36993 -22.475895,24.36993 -12.413094,0 -22.4758951,-10.910789 -22.4758951,-24.36993 0,-13.459141 10.0628011,-24.3699302 22.4758951,-24.3699302 12.413094,0 22.475895,10.9107892 22.475895,24.3699302 z"
       transform="matrix(1.0393258,0,0,0.97409327,-2.109244,951.65018)"
       inkscape:export-xdpi="90"
       inkscape:export-ydpi="90"
       inkscape:export-filename="/Users/ceciliareyes/Desktop/Website/twitter_icon.png" />
    <g
       id="g3763"
       style="fill:#b765df;fill-opacity:1;stroke:#ffffff;stroke-width:2.20000004999999987;stroke-miterlimit:4;stroke-opacity:1;stroke-dasharray:none"
       transform="translate(0.25253814,-1.2626907)">
      <path
         transform="translate(0,952.36212)"
         inkscape:connector-curvature="0"
         d="m 15.885573,11.741288 c 0.38688,-0.131518 0.784938,-0.218297 1.186001,-0.292922 0.688064,-0.120879 1.379926,-0.206202 2.078737,-0.211911 0.965178,0.02949 1.604813,0.627998 2.18298,1.335184 0.81602,1.121922 1.252322,2.439472 1.635239,3.756874 0.48796,1.74837 0.708252,3.552168 0.871271,5.355022 0.164534,2.097327 0.226672,4.201045 0.298782,6.303097 0.02194,1.995805 0.194362,3.980739 0.498351,5.952038 0.263008,1.695783 0.790593,3.314509 1.526625,4.859173 0.586384,1.186306 1.369442,2.253158 2.31559,3.174341 0.707909,0.637467 1.274929,0.990504 2.239713,0.949931 0.699921,-0.0899 1.264761,-0.46273 1.78983,-0.907497 0.483117,-0.422694 0.885796,-0.918063 1.226503,-1.459649 0.385103,-0.654522 0.617837,-1.377848 0.824461,-2.103965 0.22429,-0.786673 0.752757,-4.268732 0.163035,-0.573629 0.01801,-0.1379 0.03602,-0.2758 0.05403,-0.413701 -0.204974,-0.03246 0.122968,-2.103014 0.327942,-2.070549 l 0,0 c -0.01837,0.140156 -0.03674,0.280312 -0.0551,0.420467 -0.247498,1.570494 -0.456325,3.154919 -0.817437,4.705363 -0.20875,0.739931 -0.443168,1.477165 -0.831127,2.146053 -0.337527,0.543236 -0.739963,1.036968 -1.22595,1.456155 -0.525861,0.442552 -1.087813,0.815395 -1.788565,0.899515 -0.942724,0.03283 -1.561949,-0.395481 -2.22601,-1.036453 -0.933396,-0.962755 -1.717206,-2.054841 -2.301121,-3.265695 -0.73192,-1.571564 -1.255181,-3.215949 -1.514619,-4.93498 -0.302228,-1.982602 -0.472676,-3.978927 -0.493033,-5.985614 -0.06873,-2.091672 -0.130681,-4.185185 -0.303802,-6.271399 -0.168011,-1.778795 -0.386334,-3.560529 -0.882762,-5.282468 -0.38696,-1.283901 -0.833204,-2.565827 -1.652687,-3.646714 -0.589775,-0.688611 -1.241034,-1.244763 -2.193904,-1.266211 -0.701797,0.0051 -1.39733,0.09247 -2.083407,0.241397 -0.410545,0.09384 -0.826508,0.191288 -1.201381,0.390028 -0.219895,-0.03483 0.131921,-2.256109 0.351816,-2.221281 z"
         id="path3759"
         style="fill:#b765df;fill-opacity:1;fill-rule:nonzero;stroke:#ffffff;stroke-width:2.20000004999999987;stroke-miterlimit:4;stroke-opacity:1;stroke-dasharray:none" />
      <path
         inkscape:connector-curvature="0"
         d="m 11.278537,978.87691 c 0.816752,-0.13489 1.610622,-0.39189 2.403257,-0.62804 2.015164,-0.63891 4.012328,-1.33547 6.015681,-2.01157 2.121071,-0.70568 4.243052,-1.40894 6.368208,-2.10185 1.713362,-0.55249 3.436233,-1.07374 5.160417,-1.58998 1.559038,-0.46554 3.106808,-0.96838 4.653736,-1.47355 0.928075,-0.3133 0.469226,-0.15799 1.376562,-0.46588 0.153143,0.0247 -0.09187,1.59819 -0.245017,1.57352 l 0,0 c -0.904591,0.28972 -0.447142,0.14342 -1.372355,0.43887 -1.548161,0.48679 -3.094739,0.97903 -4.649238,1.44466 -1.719825,0.49544 -3.436449,1.00247 -5.149678,1.52101 -2.124798,0.65272 -4.250794,1.30368 -6.3556,2.02089 -2.027385,0.6998 -4.041899,1.43613 -6.045558,2.20344 -0.816538,0.30383 -1.633727,0.60649 -2.448084,0.91592 -0.179801,-0.029 0.107868,-1.87641 0.287669,-1.84744 z"
         id="path3761"
         style="fill:#b765df;fill-opacity:1;fill-rule:nonzero;stroke:#ffffff;stroke-width:2.20000004999999987;stroke-miterlimit:4;stroke-opacity:1;stroke-dasharray:none" />
    </g>
    <g
       transform="translate(0.25253814,48.737309)"
       style="fill:#b765df;fill-opacity:1;stroke:#ffffff;stroke-width:2.20000005;stroke-miterlimit:4;stroke-opacity:1;stroke-dasharray:none"
       id="g3767">
      <path
         style="fill:#b765df;fill-opacity:1;fill-rule:nonzero;stroke:#ffffff;stroke-width:2.20000005;stroke-miterlimit:4;stroke-opacity:1;stroke-dasharray:none"
         id="path3769"
         d="m 15.885573,11.741288 c 0.38688,-0.131518 0.784938,-0.218297 1.186001,-0.292922 0.688064,-0.120879 1.379926,-0.206202 2.078737,-0.211911 0.965178,0.02949 1.604813,0.627998 2.18298,1.335184 0.81602,1.121922 1.252322,2.439472 1.635239,3.756874 0.48796,1.74837 0.708252,3.552168 0.871271,5.355022 0.164534,2.097327 0.226672,4.201045 0.298782,6.303097 0.02194,1.995805 0.194362,3.980739 0.498351,5.952038 0.263008,1.695783 0.790593,3.314509 1.526625,4.859173 0.586384,1.186306 1.369442,2.253158 2.31559,3.174341 0.707909,0.637467 1.274929,0.990504 2.239713,0.949931 0.699921,-0.0899 1.264761,-0.46273 1.78983,-0.907497 0.483117,-0.422694 0.885796,-0.918063 1.226503,-1.459649 0.385103,-0.654522 0.617837,-1.377848 0.824461,-2.103965 0.22429,-0.786673 0.752757,-4.268732 0.163035,-0.573629 0.01801,-0.1379 0.03602,-0.2758 0.05403,-0.413701 -0.204974,-0.03246 0.122968,-2.103014 0.327942,-2.070549 l 0,0 c -0.01837,0.140156 -0.03674,0.280312 -0.0551,0.420467 -0.247498,1.570494 -0.456325,3.154919 -0.817437,4.705363 -0.20875,0.739931 -0.443168,1.477165 -0.831127,2.146053 -0.337527,0.543236 -0.739963,1.036968 -1.22595,1.456155 -0.525861,0.442552 -1.087813,0.815395 -1.788565,0.899515 -0.942724,0.03283 -1.561949,-0.395481 -2.22601,-1.036453 -0.933396,-0.962755 -1.717206,-2.054841 -2.301121,-3.265695 -0.73192,-1.571564 -1.255181,-3.215949 -1.514619,-4.93498 -0.302228,-1.982602 -0.472676,-3.978927 -0.493033,-5.985614 -0.06873,-2.091672 -0.130681,-4.185185 -0.303802,-6.271399 -0.168011,-1.778795 -0.386334,-3.560529 -0.882762,-5.282468 -0.38696,-1.283901 -0.833204,-2.565827 -1.652687,-3.646714 -0.589775,-0.688611 -1.241034,-1.244763 -2.193904,-1.266211 -0.701797,0.0051 -1.39733,0.09247 -2.083407,0.241397 -0.410545,0.09384 -0.826508,0.191288 -1.201381,0.390028 -0.219895,-0.03483 0.131921,-2.256109 0.351816,-2.221281 z"
         inkscape:connector-curvature="0"
         transform="translate(0,952.36212)" />
      <path
         style="fill:#b765df;fill-opacity:1;fill-rule:nonzero;stroke:#ffffff;stroke-width:2.20000005;stroke-miterlimit:4;stroke-opacity:1;stroke-dasharray:none"
         id="path3771"
         d="m 11.278537,978.87691 c 0.816752,-0.13489 1.610622,-0.39189 2.403257,-0.62804 2.015164,-0.63891 4.012328,-1.33547 6.015681,-2.01157 2.121071,-0.70568 4.243052,-1.40894 6.368208,-2.10185 1.713362,-0.55249 3.436233,-1.07374 5.160417,-1.58998 1.559038,-0.46554 3.106808,-0.96838 4.653736,-1.47355 0.928075,-0.3133 0.469226,-0.15799 1.376562,-0.46588 0.153143,0.0247 -0.09187,1.59819 -0.245017,1.57352 l 0,0 c -0.904591,0.28972 -0.447142,0.14342 -1.372355,0.43887 -1.548161,0.48679 -3.094739,0.97903 -4.649238,1.44466 -1.719825,0.49544 -3.436449,1.00247 -5.149678,1.52101 -2.124798,0.65272 -4.250794,1.30368 -6.3556,2.02089 -2.027385,0.6998 -4.041899,1.43613 -6.045558,2.20344 -0.816538,0.30383 -1.633727,0.60649 -2.448084,0.91592 -0.179801,-0.029 0.107868,-1.87641 0.287669,-1.84744 z"
         inkscape:connector-curvature="0" />
    </g>
  </g>
</svg>
