<?xml version="1.0" encoding="UTF-8" standalone="no"?>
<!-- Created with Inkscape (http://www.inkscape.org/) -->

<svg
   xmlns:dc="http://purl.org/dc/elements/1.1/"
   xmlns:cc="http://creativecommons.org/ns#"
   xmlns:rdf="http://www.w3.org/1999/02/22-rdf-syntax-ns#"
   xmlns:svg="http://www.w3.org/2000/svg"
   xmlns="http://www.w3.org/2000/svg"
   xmlns:sodipodi="http://sodipodi.sourceforge.net/DTD/sodipodi-0.dtd"
   xmlns:inkscape="http://www.inkscape.org/namespaces/inkscape"
   width="90"
   height="90"
   id="svg3065"
   version="1.1"
   inkscape:version="0.48.2 r9819"
   inkscape:export-filename="/Users/ceciliareyes/Desktop/Website/Portfolio/contentSlider/themes/3/navButtons.png"
   inkscape:export-xdpi="90"
   inkscape:export-ydpi="90"
   sodipodi:docname="nav.svg">
  <defs
     id="defs3067">
    <inkscape:perspective
       sodipodi:type="inkscape:persp3d"
       inkscape:vp_x="0 : 45 : 1"
       inkscape:vp_y="0 : 1000 : 0"
       inkscape:vp_z="90 : 45 : 1"
       inkscape:persp3d-origin="45 : 30 : 1"
       id="perspective2996" />
    <inkscape:path-effect
       effect="spiro"
       id="path-effect3871"
       is_visible="true" />
    <inkscape:path-effect
       effect="spiro"
       id="path-effect3867"
       is_visible="true" />
    <inkscape:path-effect
       effect="spiro"
       id="path-effect3863"
       is_visible="true" />
  </defs>
  <sodipodi:namedview
     id="base"
     pagecolor="#ffffff"
     bordercolor="#666666"
     borderopacity="1.0"
     inkscape:pageopacity="0.0"
     inkscape:pageshadow="2"
     inkscape:zoom="2.8"
     inkscape:cx="51.758857"
     inkscape:cy="26.168537"
     inkscape:document-units="px"
     inkscape:current-layer="layer1"
     showgrid="false"
     inkscape:window-width="843"
     inkscape:window-height="615"
     inkscape:window-x="155"
     inkscape:window-y="23"
     inkscape:window-maximized="0"
     inkscape:showpageshadow="false"
     showborder="false" />
  <metadata
     id="metadata3070">
    <rdf:RDF>
      <cc:Work
         rdf:about="">
        <dc:format>image/svg+xml</dc:format>
        <dc:type
           rdf:resource="http://purl.org/dc/dcmitype/StillImage" />
        <dc:title />
      </cc:Work>
    </rdf:RDF>
  </metadata>
  <g
     inkscape:groupmode="layer"
     id="layer2"
     inkscape:label="circles">
    <path
       sodipodi:type="arc"
       style="fill:#e5d4ee;fill-opacity:1;fill-rule:nonzero;stroke:none"
       id="path3786"
       sodipodi:cx="16.793785"
       sodipodi:cy="30.148462"
       sodipodi:rx="20.329319"
       sodipodi:ry="21.465742"
       d="m 37.123104,30.148462 a 20.329319,21.465742 0 1 1 -40.6586379,0 20.329319,21.465742 0 1 1 40.6586379,0 z"
       transform="matrix(0.99378876,0,0,0.93529411,4.0186505,-4.4164614)" />
    <path
       transform="matrix(0.99378876,0,0,0.93529411,51.697222,-2.8093186)"
       d="m 37.123104,30.148462 a 20.329319,21.465742 0 1 1 -40.6586379,0 20.329319,21.465742 0 1 1 40.6586379,0 z"
       sodipodi:ry="21.465742"
       sodipodi:rx="20.329319"
       sodipodi:cy="30.148462"
       sodipodi:cx="16.793785"
       id="path3790"
       style="fill:#e5d4ee;fill-opacity:1;fill-rule:nonzero;stroke:none"
       sodipodi:type="arc" />
  </g>
  <g
     inkscape:label="Layer 1"
     inkscape:groupmode="layer"
     id="layer1"
     transform="translate(0,-962.36218)">
    <path
       sodipodi:type="spiral"
       style="fill:none;stroke:#8c4bd3;stroke-width:2.15833402;stroke-linecap:butt;stroke-linejoin:miter;stroke-miterlimit:5;stroke-opacity:1;stroke-dasharray:none"
       id="path3875"
       sodipodi:cx="-17.425131"
       sodipodi:cy="24.845161"
       sodipodi:expansion="1"
       sodipodi:revolution="2.8671482"
       sodipodi:radius="18.142365"
       sodipodi:argument="-20.874292"
       sodipodi:t0="0.43609732"
       d="m -10.30682,21.391639 c 2.6450323,4.052081 1.016453,9.507596 -2.974281,11.99509 -4.833094,3.012552 -11.238557,1.055574 -14.108855,-3.70703 -3.382434,-5.612376 -1.095562,-12.971172 4.439779,-16.22262 6.390608,-3.7538284 14.7048927,-1.136129 18.3363853,5.172529 4.12624939,7.168153 1.177101,16.439387 -5.9052773,20.45015 -7.945228,4.499396 -18.174446,1.218365 -22.563915,-6.638027 -2.135516,-3.822204 -2.750023,-8.386274 -1.767279,-12.647328"
       transform="matrix(1.0409721,0,0,1.0626043,40.342144,958.56166)" />
    <g
       id="g2996"
       transform="translate(0,2)">
      <path
         transform="matrix(0.95957644,0.33488852,-0.2980664,0.9386475,14.293733,996.77414)"
         d="m 37.123104,30.148462 c 0,11.855202 -9.101746,21.465742 -20.329319,21.465742 -11.2275728,0 -20.3293189,-9.61054 -20.3293189,-21.465742 0,-11.855202 9.1017461,-21.4657418 20.3293189,-21.4657418 11.227573,0 20.329319,9.6105398 20.329319,21.4657418 z"
         sodipodi:ry="21.465742"
         sodipodi:rx="20.329319"
         sodipodi:cy="30.148462"
         sodipodi:cx="16.793785"
         id="path3796"
         style="fill:#e5d4ee;fill-opacity:1;fill-rule:nonzero;stroke:none"
         sodipodi:type="arc" />
      <path
         sodipodi:type="spiral"
         style="fill:none;stroke:#9002b6;stroke-width:2.10851383;stroke-linecap:butt;stroke-linejoin:miter;stroke-miterlimit:5;stroke-opacity:1;stroke-dasharray:none"
         id="path3877"
         sodipodi:cx="-17.425131"
         sodipodi:cy="24.845161"
         sodipodi:expansion="1"
         sodipodi:revolution="2.8671482"
         sodipodi:radius="18.142365"
         sodipodi:argument="-20.874292"
         sodipodi:t0="0"
         d="m -17.425131,24.845161 c -0.417364,-0.855387 0.947133,-0.984616 1.421711,-0.693686 1.286076,0.788402 0.896094,2.649035 -0.03434,3.537108 -1.664324,1.588554 -4.3371,0.921906 -5.652505,-0.762362 -1.93041,-2.471731 -0.956788,-6.051066 1.490386,-7.767902 3.261698,-2.288273 7.77462,-0.996033 9.883299,2.21841 2.653558,4.045048 1.0376361,9.502839 -2.946433,11.998696 -4.825242,3.022817 -11.233707,1.080623 -14.114094,-3.674458 -3.394437,-5.603697 -1.124482,-12.966226 4.402482,-16.229491 6.381098,-3.7675676 14.6998498,-1.168922 18.3448878,5.130506 4.14172393,7.157811 1.2137687,16.434248 -5.8585298,20.460286 -7.93405,4.516605 -18.16921,1.258909 -22.575683,-6.586554 -2.150584,-3.828988 -2.772029,-8.40738 -1.786315,-12.681311"
         transform="matrix(1.1072047,0,0,1.1273433,42.232265,1001.2977)" />
    </g>
    <path
       sodipodi:type="spiral"
       style="fill:none;stroke:#8c4bd3;stroke-width:2.11441731;stroke-linecap:butt;stroke-linejoin:miter;stroke-miterlimit:5;stroke-opacity:1;stroke-dasharray:none"
       id="path3881"
       sodipodi:cx="-17.425131"
       sodipodi:cy="24.845161"
       sodipodi:expansion="1"
       sodipodi:revolution="2.8671482"
       sodipodi:radius="18.142365"
       sodipodi:argument="-20.874292"
       sodipodi:t0="0.43512103"
       d="m -10.384455,21.274995 c 2.7116366,3.99625 1.1827326,9.468891 -2.755078,12.021735 -4.770706,3.092802 -11.198874,1.252277 -14.14806,-3.450539 -3.476311,-5.543378 -1.322722,-12.930503 4.146001,-16.274385 6.314966,-3.8613214 14.6632311,-1.393768 18.4007094,4.841462 4.2473498,7.085849 1.4652341,16.39673 -5.5369234,20.527035 -7.856245,4.634099 -18.130789,1.537003 -22.653359,-6.232385 -2.255234,-3.874298 -2.925219,-8.551102 -1.919098,-12.913515"
       transform="matrix(1.027347,0,0,1.0389037,88.024557,960.80896)" />
    <g
       id="g3001"
       transform="translate(0,2)">
      <path
         sodipodi:type="arc"
         style="fill:#e5d4ee;fill-opacity:1;fill-rule:nonzero;stroke:none"
         id="path3794"
         sodipodi:cx="16.793785"
         sodipodi:cy="30.148462"
         sodipodi:rx="20.329319"
         sodipodi:ry="21.465742"
         d="m 37.123104,30.148462 c 0,11.855202 -9.101746,21.465742 -20.329319,21.465742 -11.2275728,0 -20.3293189,-9.61054 -20.3293189,-21.465742 0,-11.855202 9.1017461,-21.4657418 20.3293189,-21.4657418 11.227573,0 20.329319,9.6105398 20.329319,21.4657418 z"
         transform="matrix(0.95540434,0.32645534,-0.29677045,0.91501043,60.842585,997.98553)" />
      <path
         transform="matrix(1.0456212,0,0,1.1495722,87.270882,1001.1632)"
         d="m -17.425131,24.845161 c -0.417364,-0.855387 0.947133,-0.984616 1.421711,-0.693686 1.286076,0.788402 0.896094,2.649035 -0.03434,3.537108 -1.664324,1.588554 -4.3371,0.921906 -5.652505,-0.762362 -1.93041,-2.471731 -0.956788,-6.051066 1.490386,-7.767902 3.261698,-2.288273 7.77462,-0.996033 9.883299,2.21841 2.653558,4.045048 1.0376361,9.502839 -2.946433,11.998696 -4.825242,3.022817 -11.233707,1.080623 -14.114094,-3.674458 -3.394437,-5.603697 -1.124482,-12.966226 4.402482,-16.229491 6.381098,-3.7675676 14.6998498,-1.168922 18.3448878,5.130506 4.14172393,7.157811 1.2137687,16.434248 -5.8585298,20.460286 -7.93405,4.516605 -18.16921,1.258909 -22.575683,-6.586554 -2.150584,-3.828988 -2.772029,-8.40738 -1.786315,-12.681311"
         sodipodi:t0="0"
         sodipodi:argument="-20.874292"
         sodipodi:radius="18.142365"
         sodipodi:revolution="2.8671482"
         sodipodi:expansion="1"
         sodipodi:cy="24.845161"
         sodipodi:cx="-17.425131"
         id="path2989"
         style="fill:none;stroke:#9002b6;stroke-width:2.10851383;stroke-linecap:butt;stroke-linejoin:miter;stroke-miterlimit:5;stroke-opacity:1;stroke-dasharray:none"
         sodipodi:type="spiral" />
    </g>
  </g>
</svg>
